<svg height="511pt" viewBox="0 0 511 511.99245" width="511pt" xmlns="http://www.w3.org/2000/svg"><path d="m.574219 195.652344v.648437l7.9375 33.195313 63.53125 265.601562c2.679687 11.347656 16.699219 16.894532 42.863281 16.894532h.136719c25.953125-.613282 51.761719-4.128907 76.933593-10.480469 11.46875-2.738281 111.832032-27.714844 104.109376-59.980469l-7.929688-33.191406-63.46875-265.59375c-.082031-.207032-.175781-.410156-.28125-.605469-.175781-.511719-.398438-1.007813-.667969-1.476563-.296875-.578124-.65625-1.121093-1.074219-1.621093-.171874-.195313-.359374-.359375-.546874-.539063-1.210938-1.269531-2.785157-2.144531-4.503907-2.5l-62.132812-25.847656-14.675781-61.4375c-1.382813-5.796875-6.582032-13.101562-23.511719-15.035156-12.214844-1.042969-24.519531-.019532-36.394531 3.027344-11.964844 2.664062-23.402344 7.320312-33.824219 13.773437-14.21875 9.386719-15.558594 18.253906-14.175781 24.039063l14.6875 61.4375-45.175782 52.8125c-.144531.171874-.179687.394531-.316406.574218-.339844.472656-.625.984375-.851562 1.519532-.234376.472656-.421876.972656-.554688 1.484374-.203125 1.089844-.246094 2.199219-.121094 3.300782zm126.082031-122.871094c.75-.496094 1.320312-.988281 2.003906-1.476562l10.992188 45.988281c0 .246093-.042969.46875 0 .714843.042968.25.128906.546876.210937.855469-1.746093 3.410157-13.0625 12.234375-35.140625 17.507813-22.621094 5.417968-36.828125 2.398437-39.25.523437-.066406-.445312-.160156-.886719-.28125-1.316406-.0625-.195313-.214844-.332031-.285156-.519531l-10.953125-45.902344c3.75.582031 7.542969.867188 11.339844.855469 9.269531-.097657 18.503906-1.257813 27.511719-3.457031 11.972656-2.667969 23.414062-7.324219 33.851562-13.773438zm-69.734375 78.507812c4.730469 2.625 9.964844 4.207032 15.359375 4.640626 2.914062.328124 5.847656.484374 8.78125.480468 9.308594-.101562 18.578125-1.273437 27.621094-3.5 11.972656-2.65625 23.414062-7.308594 33.84375-13.765625 4.613281-2.828125 8.570312-6.609375 11.605468-11.09375l51.507813 21.421875c-8.535156 8.652344-39.152344 24.746094-89.019531 36.632813-50.484375 12.066406-85.335938 11.433593-96.222656 7.882812zm23.746094 306.628907-51.003907-213.394531c7.175782 1.339843 14.464844 1.96875 21.761719 1.878906h.136719c25.957031-.613282 51.765625-4.128906 76.945312-10.480469 8.53125-2.039063 66.25-16.390625 92.074219-36.898437l50.839844 212.738281c-2.175781 7.105469-34.082031 26.265625-91.304687 39.953125-57.738282 13.8125-95.042969 10.996094-99.414063 6.210937zm135.21875-278.546875c-2.15625 7.109375-34.070313 26.265625-91.304688 39.953125-57.746093 13.808593-95.042969 10.992187-99.414062 6.210937l-3.414063-14.207031c7.175782 1.339844 14.464844 1.96875 21.761719 1.878906h.109375c25.960938-.613281 51.769531-4.128906 76.945312-10.480469 25.378907-5.722656 50.03125-14.277343 73.5-25.503906 6.550782-3.222656 12.769532-7.078125 18.566407-11.511718zm-27.875 305.546875c-57.738281 13.796875-95.039063 10.988281-99.40625 6.210937l-3.414063-14.207031c7.175782 1.332031 14.464844 1.957031 21.761719 1.867187h.136719c25.953125-.621093 51.761718-4.136718 76.933594-10.488281 8.535156-2.039062 66.269531-16.390625 92.085937-36.898437l3.242187 13.542968c-2.152343 7.125-34.082031 26.273438-91.339843 39.972657zm-103.167969-431.582031c21.332031-5.121094 35.164062-2.730469 38.894531-.523438-2.332031 3.660156-13.59375 12.023438-34.929687 17.121094-21.332032 5.09375-35.171875 2.738281-38.886719.519531 2.347656-3.660156 13.585937-12.015625 34.921875-17.117187zm0 0"/><path d="m121.484375 114.773438c3.363281-.785157 5.921875-3.527344 6.480469-6.9375.554687-3.410157-1.003906-6.820313-3.945313-8.632813-2.941406-1.816406-6.6875-1.675781-9.484375.351563-2.800781 2.027343-4.097656 5.542968-3.292968 8.90625 1.097656 4.5625 5.671874 7.382812 10.242187 6.3125zm0 0"/><path d="m510.65625 129.980469c6.308594-22.214844-4.726562-45.675781-25.855469-54.988281-.164062-12.605469-3.476562-24.96875-9.636719-35.96875-.910156-1.613282-1.886718-3.175782-2.925781-4.8125-13.378906-20.085938-35.425781-32.703126-59.519531-34.066407-32.472656-2.003906-62.644531 16.796875-75.152344 46.832031l-99.363281 64.605469c-4.957031 3.21875-7.894531 8.773438-7.765625 14.683594.128906 5.90625 3.304688 11.328125 8.398438 14.332031l118.5 69.828125c11.421874 16.132813 29.359374 26.429688 49.050781 28.160157.214843 0 .433593.058593.648437.074218 1.902344.164063 3.804688.238282 5.691406.238282 11.625-.003907 23.058594-2.988282 33.203126-8.667969 3.988281-2.222657 7.746093-4.835938 11.222656-7.800781 17.488281-15.039063 26.132812-37.9375 22.953125-60.78125 2.851562-.9375 5.609375-2.140626 8.234375-3.59375 10.898437-5.992188 18.9375-16.105469 22.316406-28.074219zm-166.085938 40.183593c-7.816406-2.011718-14.472656-7.132812-18.421874-14.171874-3.863282-6.855469-4.828126-14.96875-2.675782-22.535157 2.152344-7.566406 7.242188-13.960937 14.136719-17.753906 3.007813-1.71875 6.308594-2.878906 9.734375-3.410156 8.046875-1.382813 16.304688.640625 22.800781 5.585937-2.914062 2.300782-5.628906 4.847656-8.105469 7.613282-11.125 12.230468-17.347656 28.136718-17.46875 44.671874zm-12.859374-99.027343c-.625 9.171875.4375 18.378906 3.132812 27.167969-1.898438.707031-3.75 1.539062-5.539062 2.492187-22.191407 12.21875-30.460938 39.988281-18.570313 62.351563l-63.230469-37.253907zm114.347656 138.339843c-2.613282 2.230469-5.441406 4.199219-8.441406 5.871094-8.726563 4.894532-18.703126 7.109375-28.679688 6.367188l-.597656-.070313c-15.589844-1.242187-29.726563-9.625-38.296875-22.707031-.726563-1.003906-1.390625-2.050781-1.996094-3.128906-3.070313-5.386719-5.097656-11.300782-5.972656-17.433594-2.171875-15.003906 2.464843-30.191406 12.644531-41.421875 3.652344-4.074219 7.960938-7.507813 12.75-10.15625.152344-.085937.230469-.230469.367188-.316406.136718-.082031.316406-.101563.453124-.203125.304688-.261719.589844-.546875.851563-.851563.425781-.375.8125-.789062 1.160156-1.238281.289063-.457031.535157-.9375.726563-1.441406.238281-.488282.429687-.996094.570312-1.519532.097656-.527343.144532-1.0625.136719-1.597656.039063-.546875.023437-1.09375-.050781-1.636718-.117188-.546876-.285156-1.078126-.503906-1.589844-.09375-.398438-.21875-.792969-.375-1.175782-.085938-.152343-.238282-.238281-.324219-.382812-.085938-.144531-.101563-.300781-.203125-.4375-8.878906-12.480469-23.34375-19.777344-38.65625-19.507812-4.242188-12.773438-3.941406-26.621094.851562-39.199219 7.933594-20.871094 26.839844-35.582031 49.019532-38.144531 22.179687-2.5625 43.941406 7.445312 56.425781 25.957031.792969 1.246093 1.621093 2.5625 2.363281 3.890625 13.628906 24.457031 8.320312 55.109375-12.738281 73.558594-.121094.109374-.164063.257812-.28125.367187-.121094.109375-.273438.160156-.382813.28125-.242187.34375-.457031.703125-.648437 1.074219-.328125.449218-.613281.925781-.855469 1.425781-.191406.515625-.328125 1.046875-.417969 1.585937-.128906.519532-.210937 1.046876-.238281 1.582032.015625.539062.078125 1.082031.195312 1.609375.078126.535156.203126 1.0625.375 1.570312.234376.515625.519532 1 .855469 1.453125.171875.382813.382813.746094.621094 1.089844.101563.121094.257813.164062.367187.273438.109376.113281.152344.28125.28125.394531 10.644532 9.820312 16.589844 23.71875 16.339844 38.199219-.25 14.484374-6.667968 28.167968-17.644531 37.617187zm33.96875-66.3125c-1.421875.765626-2.902344 1.410157-4.425782 1.9375-1.003906-2.484374-2.160156-4.902343-3.457031-7.246093-2.074219-3.625-4.476562-7.050781-7.175781-10.238281 8.800781-9.695313 14.953125-21.496094 17.867188-34.261719 8.277343 5.851562 12.957031 15.550781 12.386718 25.667969-.570312 10.121093-6.3125 19.234374-15.195312 24.117187zm0 0"/><path d="m443.78125 162.125c-2.265625.082031-4.402344 1.0625-5.945312 2.722656-1.542969 1.660156-2.359376 3.863282-2.273438 6.128906.46875 4.945313-1.171875 9.859376-4.511719 13.535157-3.34375 3.675781-8.082031 5.773437-13.050781 5.773437-4.710938.113282-8.441406 4.027344-8.328125 8.738282.113281 4.714843 4.023437 8.441406 8.738281 8.328124h.425782c9.484374-.1875 18.472656-4.261718 24.863281-11.273437 6.386719-7.007813 9.617187-16.335937 8.929687-25.792969-.203125-4.691406-4.15625-8.335937-8.847656-8.160156zm0 0"/><path d="m385.214844 36.625c-1.894532-1.234375-4.203125-1.667969-6.417969-1.203125s-4.15625 1.792969-5.390625 3.6875l-4.226562 6.476563c-1.664063 2.558593-1.839844 5.8125-.457032 8.535156 1.386719 2.722656 4.117188 4.5 7.164063 4.664062 3.050781.164063 5.957031-1.3125 7.621093-3.871094l4.265626-6.476562c1.230468-1.90625 1.652343-4.222656 1.171874-6.4375-.480468-2.214844-1.820312-4.148438-3.730468-5.375zm0 0"/><path d="m148.585938 391.9375c1.136718 4.574219 5.769531 7.363281 10.347656 6.222656 4.574218-1.136718 7.363281-5.769531 6.222656-10.34375l-10.757812-43.214844 52.050781-12.96875 10.761719 43.210938c.734374 2.960938 2.996093 5.300781 5.925781 6.144531 2.929687.839844 6.085937.054688 8.28125-2.0625 2.195312-2.117187 3.09375-5.242187 2.355469-8.203125l-25.597657-102.988281c-1.140625-4.578125-5.773437-7.363281-10.347656-6.226563-4.578125 1.140626-7.363281 5.773438-6.226563 10.347657l10.761719 43.222656-52.054687 12.96875-10.757813-43.21875c-1.140625-4.578125-5.773437-7.363281-10.347656-6.226563-4.578125 1.136719-7.363281 5.769532-6.226563 10.347657zm0 0"/></svg>