<svg height="496pt" viewBox="0 0 496 496" width="496pt" xmlns="http://www.w3.org/2000/svg"><path d="m272 280c0-13.230469-10.769531-24-24-24h-4.320312c7.632812-8.503906 12.320312-19.695312 12.320312-32 0-26.472656-21.527344-48-48-48h-.496094c-2.425781-29.625-18.007812-56.617188-43.007812-73.28125l-15.601563-10.398438-17.167969 34.335938c-5.613281 11.230469-16.414062 18.871094-28.878906 20.433594-26.703125 3.324218-46.847656 26.140625-46.847656 53.070312v7.839844h-8c-17.648438 0-32 14.351562-32 32 0 5.992188 1.761719 11.542969 4.632812 16.335938-11.632812 1.65625-20.632812 11.585937-20.632812 23.664062 0 13.03125 10.449219 23.617188 23.398438 23.9375l-23.398438 29.253906v117.609375l36.160156 45.199219h199.6875l36.160156-45.191406v-117.617188l-23.398437-29.253906c12.941406-.320312 23.390625-10.90625 23.390625-23.9375zm-224-56h56v-16h-32v-7.839844c0-18.863281 14.121094-34.855468 32.832031-37.199218 17.785157-2.226563 33.191407-13.121094 41.207031-29.152344l9.058594-18.121094.519532.34375c20.535156 13.6875 33.503906 35.710938 35.878906 59.96875h-39.496094v16h56c17.648438 0 32 14.351562 32 32s-14.351562 32-32 32h-160c-8.824219 0-16-7.175781-16-16s7.175781-16 16-16zm180.152344 80 25.601562 32h-235.515625l25.601563-32zm-212.152344 128v-80h240v80zm212.160156 48h-184.320312l-25.601563-32h235.515625zm19.839844-192h-224c-4.40625 0-8-3.585938-8-8s3.59375-8 8-8h224c4.40625 0 8 3.585938 8 8s-3.59375 8-8 8zm0 0"/><path d="m32 368v48h208v-48zm192 32h-176v-16h176zm0 0"/><path d="m120 208h16v16h-16zm0 0"/><path d="m496 0h-208l.015625 56.519531 23.984375 367.753907v47.726562c0 13.230469 10.769531 24 24 24h112c13.230469 0 24-10.769531 24-24v-47.734375l24-368.265625zm-168.503906 416-1.046875-16h131.09375l-1.039063 16zm87.03125 16c-3.3125 9.289062-12.113282 16-22.527344 16s-19.214844-6.710938-22.527344-16zm44.066406-48h-133.1875l-20.886719-320h174.9375zm-26.59375-336v-32h16v32zm-16 0h-16v-32h16zm-32 0h-16v-32h16zm-32 0h-16v-32h16zm112 0v-32h16l.007812 32zm-144-32v32h-16v-32zm136 456c0 4.414062-3.59375 8-8 8h-112c-4.40625 0-8-3.585938-8-8v-40h24.808594c3.71875 18.230469 19.871094 32 39.191406 32s35.472656-13.769531 39.191406-32h24.808594zm0 0"/><path d="m392 104c-30.878906 0-56 25.121094-56 56v128c0 30.871094 25.121094 56 56 56s56-25.128906 56-56v-128c0-30.878906-25.121094-56-56-56zm40 184c0 22.054688-17.945312 40-40 40s-40-17.945312-40-40v-128c0-22.054688 17.945312-40 40-40s40 17.945312 40 40zm0 0"/></svg>