<?xml version="1.0"?>
<svg xmlns="http://www.w3.org/2000/svg" height="512px" viewBox="0 -52 464 464" width="512px"><path d="m344 360h64l14-56h-92zm0 0" fill="#085e3c"/><path d="m424 48c22.054688 0 40-17.945312 40-40v-8h-40c-22.054688 0-40 17.945312-40 40v-40h-16v64c0-22.054688-17.945312-40-40-40h-40v8c0 22.054688 17.945312 40 40 40h40v128c0-22.054688-17.945312-40-40-40h-40v8c0 22.054688 17.945312 40 40 40h40v56h-40v24h96v-24h-40v-104h40c22.054688 0 40-17.945312 40-40v-8h-40c-22.054688 0-40 17.945312-40 40v-104zm0 0" fill="#085e3c"/><path d="m50.863281 133.105469 3.457031 1.558593 11.023438 41.335938h33.578125l-12.96875-48.617188 2.613281-3.167968c4.867188-5.902344 7.433594-12.894532 7.433594-20.214844 0-17.648438-14.351562-32-32-32s-32 14.351562-32 32c0 12.496094 7.40625 23.921875 18.863281 29.105469zm0 0" fill="#085e3c"/><path d="m120 336c-2.703125 0-5.335938-.246094-8-.40625v16.40625h80v-16.375c-2.65625.152344-5.304688.375-8 .375zm0 0" fill="#085e3c"/><path d="m120 320h64c52.097656 0 96.601562-32.921875 113.097656-80h-290.097656c16.527344 46.535156 60.871094 80 113 80zm0 0" fill="#085e3c"/><path d="m277.480469 192h-277.480469v8c0 8.214844.839844 16.238281 2.414062 24h299.171876c.40625-2.023438.652343-4.113281.957031-6.175781-10.925781-5.609375-19.757813-14.703125-25.0625-25.824219zm0 0" fill="#085e3c"/></svg>
