<?xml version="1.0" encoding="iso-8859-1"?>
<!-- Generator: Adobe Illustrator 19.0.0, SVG Export Plug-In . SVG Version: 6.00 Build 0)  -->
<svg version="1.1" id="Capa_1" xmlns="http://www.w3.org/2000/svg" xmlns:xlink="http://www.w3.org/1999/xlink" x="0px" y="0px"
	 viewBox="0 0 512 512" style="enable-background:new 0 0 512 512;" xml:space="preserve">
<g>
	<g>
		<path d="M170.551,29.335c-4.144,0-7.504,3.36-7.504,7.504v16.878c0,4.144,3.36,7.504,7.504,7.504c4.144,0,7.504-3.36,7.504-7.504
			V36.839C178.055,32.694,174.695,29.335,170.551,29.335z"/>
	</g>
</g>
<g>
	<g>
		<path d="M213.275,29.335c-4.144,0-7.504,3.36-7.504,7.504v16.878c0,4.144,3.36,7.504,7.504,7.504c4.144,0,7.504-3.36,7.504-7.504
			V36.839C220.78,32.694,217.42,29.335,213.275,29.335z"/>
	</g>
</g>
<g>
	<g>
		<path d="M256,29.335c-4.144,0-7.504,3.36-7.504,7.504v16.878c0,4.144,3.36,7.504,7.504,7.504c4.144,0,7.504-3.36,7.504-7.504
			V36.839C263.504,32.694,260.144,29.335,256,29.335z"/>
	</g>
</g>
<g>
	<g>
		<path d="M298.725,29.335c-4.144,0-7.504,3.36-7.504,7.504v16.878c0,4.144,3.36,7.504,7.504,7.504c4.144,0,7.504-3.36,7.504-7.504
			V36.839C306.229,32.694,302.869,29.335,298.725,29.335z"/>
	</g>
</g>
<g>
	<g>
		<path d="M341.45,29.335c-4.144,0-7.504,3.36-7.504,7.504v16.878c0,4.144,3.36,7.504,7.504,7.504c4.144,0,7.504-3.36,7.504-7.504
			V36.839C348.954,32.694,345.594,29.335,341.45,29.335z"/>
	</g>
</g>
<g>
	<g>
		<path d="M352.441,224.681c-0.15-1.766-0.918-3.422-2.172-4.675l-0.193-0.193c-0.002-0.002-0.003-0.003-0.005-0.005
			s-0.003-0.003-0.005-0.005l-0.193-0.193c-1.253-1.253-2.909-2.022-4.675-2.172c-11.276-0.953-111.678-7.469-164.838,56.054
			c-38.47,45.97-16.623,96.442-7.59,113.004l-10.7,10.7c-2.928,2.931-2.928,7.683,0.002,10.613c1.465,1.465,3.386,2.198,5.306,2.198
			c1.92,0,3.841-0.733,5.306-2.198l10.7-10.7c9.405,5.131,29.741,14.393,53.993,14.393c18.443,0,39.151-5.364,59.01-21.983
			C359.911,336.359,353.394,235.955,352.441,224.681z M191.873,283.125c20.184-24.118,50.604-40.02,90.415-47.262
			c17.75-3.229,33.786-4.031,45.169-4.051l-36.187,36.187l-1.405-13.16c-0.44-4.121-4.135-7.103-8.259-6.665
			c-4.121,0.44-7.105,4.138-6.665,8.259l2.692,25.204l-24.547,24.547l-3.518-32.938c-0.44-4.121-4.139-7.104-8.259-6.665
			c-4.121,0.44-7.105,4.138-6.665,8.259l4.804,44.982l-24.547,24.547l-4.739-44.374c-0.44-4.121-4.133-7.103-8.259-6.665
			c-4.121,0.44-7.105,4.138-6.665,8.259l6.025,56.417l-17.372,17.372C175.537,358.401,161.885,318.958,191.873,283.125z
			 M334.019,287.593c-7.243,39.812-23.144,70.232-47.263,90.416c-35.834,29.987-75.276,16.336-92.253,7.982l17.372-17.372
			l56.417,6.025c0.271,0.029,0.539,0.043,0.806,0.043c3.787,0,7.042-2.858,7.452-6.708c0.44-4.121-2.544-7.818-6.665-8.259
			l-44.374-4.739l24.547-24.547l44.982,4.804c0.271,0.029,0.539,0.043,0.806,0.043c3.787,0,7.041-2.858,7.452-6.708
			c0.44-4.121-2.544-7.818-6.665-8.259l-32.938-3.518l24.547-24.547l25.204,2.692c0.271,0.029,0.54,0.043,0.806,0.043
			c3.787,0,7.042-2.858,7.452-6.708c0.44-4.121-2.544-7.818-6.665-8.259l-13.16-1.405l36.19-36.187
			C338.049,253.808,337.247,269.845,334.019,287.593z"/>
	</g>
</g>
<g>
	<g>
		<path d="M412.371,369.565c4.144,0,7.504-3.36,7.504-7.504V170.834c0-14.525-7.758-28.155-20.246-35.571l-41.288-24.517v-20.19
			h11.374c12.132,0,22.002-9.87,22.002-22.002V22.002C391.717,9.87,381.847,0,369.715,0h-227.43
			c-12.132,0-22.002,9.87-22.002,22.002v46.552c0,12.132,9.87,22.002,22.002,22.002h11.374v20.19l-41.287,24.517
			c-12.489,7.416-20.247,21.046-20.247,35.571v303.168c0,20.952,17.046,37.998,37.998,37.998h251.754
			c20.952,0,37.998-17.046,37.998-37.998V397.08c0-4.144-3.36-7.504-7.504-7.504c-4.144,0-7.504,3.36-7.504,7.504v37.521H107.133
			V193.206h35.698c4.144,0,7.504-3.36,7.504-7.504c0-4.144-3.36-7.504-7.504-7.504h-35.698v-7.364
			c0-9.255,4.944-17.94,12.902-22.666l43.188-25.646h185.553l43.189,25.646c7.958,4.725,12.901,13.41,12.901,22.666v7.364H178.352
			c-4.144,0-7.504,3.36-7.504,7.504c0,4.144,3.36,7.504,7.504,7.504h226.515V362.06
			C404.867,366.205,408.226,369.565,412.371,369.565z M404.867,449.61v24.391c0,12.677-10.313,22.99-22.99,22.99H130.123
			c-12.677,0-22.99-10.313-22.99-22.99V449.61H404.867z M168.667,107.513V90.556h174.665v16.957H168.667z M142.285,75.547
			c-3.856,0-6.993-3.137-6.993-6.993V22.002c0-3.856,3.137-6.993,6.993-6.993h227.43c3.856,0,6.993,3.137,6.993,6.993v46.552
			c0,3.856-3.137,6.993-6.993,6.993H142.285z"/>
	</g>
</g>
<g>
</g>
<g>
</g>
<g>
</g>
<g>
</g>
<g>
</g>
<g>
</g>
<g>
</g>
<g>
</g>
<g>
</g>
<g>
</g>
<g>
</g>
<g>
</g>
<g>
</g>
<g>
</g>
<g>
</g>
</svg>
