<?xml version="1.0" encoding="utf-8"?>
<!-- Generator: Adobe Illustrator 22.1.0, SVG Export Plug-In . SVG Version: 6.00 Build 0)  -->
<svg version="1.1" id="Capa_1" xmlns="http://www.w3.org/2000/svg" xmlns:xlink="http://www.w3.org/1999/xlink" x="0px" y="0px"
	 viewBox="0 0 231.5 362.3" style="enable-background:new 0 0 231.5 362.3;" xml:space="preserve">
<style type="text/css">
	.st0{fill:#2D402C;}
	.st1{fill:#98AA84;}
	.st2{fill:#647D62;}
</style>
<path class="st0" d="M171.7,82.8c14.1-17.6,20.7-37.8,14.6-60c-2.3-8.2-8.9-15.3-15.4-21.9c14.5,25.1,13.7,48.8-3.5,75.8
	c2.9-32.8-4.5-57.8-28.6-76.6c7.2,19.6,14.1,38.1,20.8,56.7c0.8,2.3,0.9,5,1.3,7.5c-33.1-44.9-44.1-56-54.7-50.1
	c9.4,10.2,24.9,27,34.3,37.3c-15.4-6.6-26.5-22.4-45.7-17.5c13.7,8.8,27.3,17.7,41,26.5c-0.6,1.2-1.1,2.3-1.7,3.5
	c-20.5-7.4-40.6-18.1-62.8-12.4c-0.2,1.1-0.4,2.3-0.6,3.4c20,5.3,39.9,10.6,59.9,15.9c-0.2,1.7-0.4,3.3-0.7,5
	c-18.3,0.7-36.5,1.4-54.8,2.1c-0.1,1.6-0.1,3.3-0.2,4.9c15.8,6,32.9,2.4,49.8,7.1c-21.7,4-43.5,8.1-65.2,12.1
	c-0.1,1.1-0.1,2.2-0.2,3.2c5.4,1.4,10.9,2.8,17.5,4.6c-4.7,2.2-8.8,4.1-13.1,6.2c17.9,13.2,72.5-3.5,89-26.6
	c0,11.6-6,20.3-19.8,27.2c-10.9,5.5-22.2,10.3-35.2,16.3c23.2,7.9,52.9-10.2,68.3-41.6c11.9,11.2,41.5,37.3,65.4,58.6v-15.2
	C214.9,118.6,193.3,100.3,171.7,82.8z"/>
<path class="st1" d="M215.7,247.4c3.3,4.1,11,4.2,15.8,4v-12.9C225.3,241.3,219.7,244.3,215.7,247.4z"/>
<path class="st1" d="M157.4,185.4l-31.2-6.1c-5.1-1.4-5.7-1.3-10.6-2l-26.1-3.6c-1.8-0.3-1.2,0-2.7,0l-37.3-3.7
	c-1.1-0.8-0.9-0.8-2.3-2.1c-11.6-10.5-33.7-12.3-46.5-5.2c-0.1,2-0.3,3.5-0.7,5.2c5.1,5.1,11,6,16.9,8.4c4.5,1.8,12.6,3.7,17.2,3.7
	c22,0.2,6.9-8.7,29.8-5.9l57.2,6.5c7.1,0.9,10,2.4,17.1,3.6c32.7,5.4,63.1,14.3,93.3,26.8v-2.7C205,197.2,203.4,197.1,157.4,185.4z"
	/>
<path class="st1" d="M204.3,211c-5.8-0.4-0.6-2.3-6.5-2.1c-6.9,0.2-33.4,8.4-36.2,13.2c-0.8,3.8-0.6,4.1-1.7,7.3
	c2.9,3.6,2.9,2.6,6.3,3.2c28.9,5.5,16.7-0.6,26.6-3.4c17.3-4.9,9.2-0.9,24.3-13C213.7,210.5,209.3,211.4,204.3,211z"/>
<path class="st1" d="M111.3,200.3c-3.6,2.2-11.3,8.7-10.6,12.2c1.4,7,7.9,4.7,12.3,2.9c6.6-2.8,8.3-1.9,14.7-4.6
	c8.9-3.8,22-8.5,25.8-17.9C145.8,182.1,120.7,194.6,111.3,200.3z"/>
<path class="st1" d="M224,200.4l1-2.1c-0.1-0.3,0.1-0.5,0.2-0.7c3.2,3.2,2,2.4,4.5,1.8c3.2-10.1-18.6-41-29.4-43.5
	c-4.9,3-4.4,6.4-2.7,11.1C202.5,179.9,212.4,193.6,224,200.4z"/>
<path class="st1" d="M137.4,170.2c3.5,3.8,8.2,6.9,12.1,9.2c7.5,4.6,6.1,2.6,8.2,3.6l1.3,0.8c0.4,0.3,1.3,1.3,2.3,2.1
	c1.1-1.7,2.5-1.9,0.8-6.7c-2-5.5-8.9-15-12.5-19.3c-1.9-2.3-8-9.4-9.7-11.1c-3.8-3.5-6.3-5.5-10.6-6c-5.8,4.1-4.1,7.4-1.4,13.5
	C129.9,161.1,133.6,166.1,137.4,170.2z"/>
<path class="st1" d="M82.4,162.2c6.1,5.7,2.6,4,9.9,6.6c3.5,1.2,6.6,2.2,10.4,1.2c4.9-10.8-28.2-36.9-32.3-35.9
	c-2.4,1.8-3.8,4-4.9,6.4C69.3,148.4,76.3,156.6,82.4,162.2z"/>
<path class="st1" d="M49.5,201.5c1.6,1,2.5,0.6,3.4,0.7c-0.2,1.5-0.2,1.8,0,3.7c3.6-1.1,6.3-0.8,10.7-2.3
	c9.8-3.3,25.9-11.4,26.3-21.6C80,175.2,52.2,192.9,49.5,201.5z"/>
<path class="st2" d="M231.5,241.9c-2.9-4.3-6.3-8.2-10.4-11.7c-1.9-1.8-6.2,0.1-5.6,3.1c2.5,11,7.9,20.4,16,28.1v-10V241.9z"/>
<path class="st2" d="M230.7,278.1c-4.3-5.4-9.8-9.8-16.3-13.1c-3.3-1.5-6,2.6-4.2,5.4c6.1,9.2,13.3,17.6,21.4,25.1V268
	C230.9,271.3,230.6,274.7,230.7,278.1z"/>
<path class="st2" d="M229.5,350.6c-3.2,1.7-0.8,6,2,6.3v-7.4C230.9,349.9,230.2,350.2,229.5,350.6z"/>
<path class="st2" d="M207.5,332.4c-0.3-0.7-0.9-1.1-2-1.2c-9.9-1.7-20-1.9-30,0.2c-4,0.8-4.3,5.9-0.4,6.9c5,1.3,10.2,1.8,15.3,1.9
	c-1.4,0.8-2.8,1.8-3.9,3c-2.6,2.5-6.6,7-3.6,10.9c3.4,4.2,9.4,0.9,12.9-0.9c6.2-3.4,11.6-7.7,16.5-12.6c0.4-0.4,0.7-0.8,0.8-1.3
	c6.1,0.1,12.3,0.7,18.4,1.6v-6.7C223.7,333,215.7,332.4,207.5,332.4z"/>
<path class="st2" d="M223,309.2c-10.3-4.6-20.7-8.1-31.4-11.1c-5.9-7.5-11.9-15.3-18.8-21.7c-0.8-5.5-2.4-10.9-4.3-15.9
	c-1.7-4.4-3.5-9.7-7.9-11.5c-2.6-1-4.9,0.9-4.9,3.6c0.1,4.7,1,9.2,2.6,13.3c-6.1-3.4-12.3-6.6-18.8-9.6
	c-4.5-8.6-12.9-14.1-22.3-15.6c-3.4-0.4-5.7,4.2-2.8,6.4c4.1,2.9,8.1,6.2,12.3,9.1c-5.8,0.5-11.6,1.9-17.3,4.1
	c-3.3,1.3-2.8,6.4,0.6,6.8c8.5,1.3,17.2,0.4,25.3-2.7c0.9-0.3,1.4-0.8,1.7-1.4c9.6,4.8,19.4,9.4,27.8,16.2c0.5,0.6,1.1,0.8,1.5,1.4
	c0.3,0.7,1,1.4,1.8,1.6c4.3,3.9,8,8.5,11.8,13.1c-22.7-5.4-45.9-8.3-68.8-11.1l-0.1-0.2c-7.6-6.6-17.1-9.8-27.2-9.4
	c-3.7,0.2-4.2,5.4-1.2,6.7c5.5,2.4,11.2,5,16.7,7.4c-2.6,3-5.1,6.2-7.8,9.2c-2,2.5,0.9,6.9,4.1,5.5c4.3-1.9,8.3-3.9,11.9-6.8
	c1.8-1.2,3.9-3,4.5-5.2c25.2,2.9,50.6,6.2,75.2,12.9c-10.5,0.8-20.6,3.4-30.4,7.1c-1,0.1-1.8,0.5-2.4,0.9
	c-7.8,3.2-15.6,7.2-23.2,11.6c-0.1-0.2-0.4-0.4-0.6-0.3c-11-1.1-21.6,0.7-31.2,5.7c-2.7,1.5-3.3,6.5,0.7,7
	c8.8,0.7,17.5-0.2,25.9-2.6c-3,9.2-2.1,19.4,2.7,28.1c1.4,2.5,5.3,3.5,6.6,0.2c3.6-10.2,3.5-20.9-0.5-30.9c0.1-0.3,0.3-0.6,0.4-0.9
	c-0.1-0.2,0.1-0.3,0.1-0.5c4.9-2.9,9.9-5.6,15-8c-3.4,6.1-5.2,12.8-4.6,20.1c0.1,3,4.5,4.6,6.2,1.9c4.9-7.4,9.5-15.7,9.4-24.7
	c0.1-0.3,0.1-0.3,0.4-0.4c0.8-0.6,1.1-1.2,1.2-2c14.8-5.2,30.5-7.4,46.7-3.8c0.8,0.2,1.8,0.1,2.4-0.4c1.5,0.7,2.9,1.1,4.2,1.7
	c5.2,2.2,10.3,4.7,15.2,7.4v-8.1C228.7,311.8,225.9,310.5,223,309.2z"/>
</svg>
