<?xml version="1.0" encoding="iso-8859-1"?>
<!-- Generator: Adobe Illustrator 19.0.0, SVG Export Plug-In . SVG Version: 6.00 Build 0)  -->
<svg xmlns="http://www.w3.org/2000/svg" xmlns:xlink="http://www.w3.org/1999/xlink" version="1.1" id="Capa_1" x="0px" y="0px" viewBox="0 0 512 512" style="enable-background:new 0 0 512 512;" xml:space="preserve" width="512px" height="512px">
<g>
	<g>
		<path d="M497,226c-20.529,0-40.871,2.461-60.58,7.206c-6.78-40.755-19.086-69.863-19.675-71.24l-5.282-12.349l-12.855,3.892    c-1.531,0.463-34.141,10.484-71.537,33.305c-30.439-52.431-69.676-84.509-71.071-85.948c-2.442,2.514-39.02,31.109-70.611,85.16    c-36.851-22.261-68.727-32.064-70.224-32.517l-12.855-3.892l-5.282,12.349c-0.593,1.387-12.98,30.689-19.745,71.661    C57.044,228.609,36.121,226,15,226H0v15c0,140.607,114.841,255,256,255s256-114.393,256-255v-15H497z M394.048,186.989    c4.089,12.117,9.812,31.689,13.399,55.012c-17.409,6.422-34.089,14.709-49.69,24.741c-3.25-17.526-8.928-35.347-16.924-53.165    C361.874,200.548,381.631,191.851,394.048,186.989z M119.744,186.98c12.116,4.737,31.233,13.148,51.803,25.745    c-8.199,18.102-14.002,36.211-17.304,54.017c-15.099-9.709-31.208-17.784-48.01-24.115    C109.811,219.1,115.615,199.236,119.744,186.98z M30.532,256.529c43.726,2.979,85.789,18.473,120.468,44.47c0,0,0,0.001,0,0.002    c0,60.33,31.021,117.928,71.959,162.601C118.985,448.373,37.813,362.397,30.532,256.529z M255.982,454.593    C233.827,432.89,181,373.524,181,301c0-72.157,52.52-135.191,75-158.862c22.485,23.676,75,86.705,75,158.862    C331,373.295,278.116,432.842,255.982,454.593z M289.041,463.601C329.97,418.938,361,361.338,361,301c0,0,0-0.001,0-0.002    c34.679-25.997,76.742-41.491,120.468-44.47C474.187,362.397,393.015,448.373,289.041,463.601z" fill="#48990e"/>
	</g>
</g>
<g>
	<g>
		<rect x="91" y="76" width="30" height="30" fill="#48990e"/>
	</g>
</g>
<g>
	<g>
		<rect x="241" y="16" width="30" height="30" fill="#48990e"/>
	</g>
</g>
<g>
	<g>
		<rect x="391" y="76" width="30" height="30" fill="#48990e"/>
	</g>
</g>
<g>
	<g>
		<rect x="482" y="166" width="30" height="30" fill="#48990e"/>
	</g>
</g>
<g>
	<g>
		<rect y="166" width="30" height="30" fill="#48990e"/>
	</g>
</g>
<g>
</g>
<g>
</g>
<g>
</g>
<g>
</g>
<g>
</g>
<g>
</g>
<g>
</g>
<g>
</g>
<g>
</g>
<g>
</g>
<g>
</g>
<g>
</g>
<g>
</g>
<g>
</g>
<g>
</g>
</svg>
