<?xml version="1.0" encoding="iso-8859-1"?>
<!-- Generator: Adobe Illustrator 16.0.0, SVG Export Plug-In . SVG Version: 6.00 Build 0)  -->
<!DOCTYPE svg PUBLIC "-//W3C//DTD SVG 1.1//EN" "http://www.w3.org/Graphics/SVG/1.1/DTD/svg11.dtd">
<svg version="1.1" id="Capa_1" xmlns="http://www.w3.org/2000/svg" xmlns:xlink="http://www.w3.org/1999/xlink" x="0px" y="0px"
	 width="129.362px" height="129.362px" viewBox="0 0 129.362 129.362" style="enable-background:new 0 0 129.362 129.362;"
	 xml:space="preserve">
<g>
	<path d="M77.855,96.738c-1.667,0-3.026-1.365-3.026-3.026v-5.65h-5.281c-1.673,0-3.026-1.354-3.026-3.026
		c0-1.661,1.354-3.026,3.026-3.026h5.281v-4.924c0-1.673,1.359-3.026,3.026-3.026c1.673,0,3.026,1.354,3.026,3.026v4.924h5.296
		c1.673,0,3.026,1.365,3.026,3.026c0,1.673-1.354,3.026-3.026,3.026h-5.296v5.65C80.882,95.373,79.534,96.738,77.855,96.738z
		 M112.794,48.432l-5.935,9.146h15.397c1.035,0,1.998,0.532,2.56,1.404c0.55,0.884,0.627,1.977,0.172,2.911l-22.981,48.379
		c-0.502,1.053-1.566,1.721-2.736,1.721H53.32c-1.167,0-2.234-0.662-2.737-1.721l-2.426-5.13c-5.095,4.291-11.47,6.975-18.454,6.975
		c-0.012,0-0.328,0-0.34,0C12.979,111.928-0.19,97.754,0.002,80.525c0.201-16.309,26.74-56.111,27.872-57.793
		c0.57-0.848,1.581-1.241,2.547-1.345c1.023,0.015,1.968,0.541,2.518,1.401c0.704,1.105,11.597,18.303,19.195,34.764h31.62
		l15.491-18.991c-1.938-4.915-1.276-10.574,1.88-14.889c2.441-3.372,6.064-5.594,10.19-6.242c4.114-0.63,8.245,0.352,11.626,2.796
		c6.957,5.074,8.506,14.848,3.435,21.813C123.238,46.387,118.107,48.813,112.794,48.432z M26.411,105.71l0.071-5.828L14.693,89.621
		c-1.259-1.104-1.392-3.008-0.292-4.273c1.097-1.259,3.021-1.389,4.273-0.289l7.906,6.886l0.098-7.819L14.891,73.851
		c-1.259-1.1-1.392-3.015-0.29-4.273c1.108-1.259,3.014-1.383,4.273-0.289l7.896,6.886l0.142-12.117
		c0.018-1.649,1.371-2.991,3.026-2.991c0.012,0,0.023,0,0.036,0c1.669,0.018,3.014,1.395,2.991,3.074l-0.142,11.686l8.125-6.324
		c1.312-1.029,3.212-0.793,4.25,0.525c1.023,1.318,0.786,3.222-0.529,4.25l-11.928,9.292l-0.098,8.009l8.122-6.324
		c1.315-1.029,3.215-0.792,4.25,0.525c1.023,1.33,0.786,3.222-0.526,4.25l-11.937,9.298l-0.077,6.46
		c11.615-1.477,20.797-11.886,20.936-24.624c0.127-10.828-14.848-37.628-23.073-51.102C21.798,43.337,6.199,69.779,6.066,80.619
		C5.916,93.404,14.826,103.984,26.411,105.71z M117.47,63.631H54.792c2.347,5.71,4.031,11.023,4.489,15.256
		c2.58-7.844,9.892-13.565,18.586-13.565c10.829,0,19.642,8.813,19.642,19.647c0,10.835-8.812,19.647-19.642,19.647
		c-9.711,0-17.75-7.099-19.313-16.379c-1.07,4.575-3.145,8.707-5.905,12.26l2.589,5.449h42.129L117.47,63.631z M77.855,98.564
		c7.495,0,13.595-6.1,13.595-13.595s-6.1-13.595-13.595-13.595c-7.486,0-13.586,6.094-13.586,13.595S70.363,98.564,77.855,98.564z
		 M111.878,42.235c3.664,0.732,7.436-0.739,9.604-3.73c3.104-4.262,2.158-10.247-2.104-13.352c-2.075-1.502-4.599-2.11-7.129-1.711
		c-2.523,0.399-4.734,1.755-6.229,3.824c-2.176,2.991-2.406,7.028-0.586,10.291c0.615,1.082,0.491,2.427-0.295,3.401L91.562,57.597
		h8.074l9.103-14.026C109.431,42.512,110.66,41.992,111.878,42.235z"/>
</g>
<g>
</g>
<g>
</g>
<g>
</g>
<g>
</g>
<g>
</g>
<g>
</g>
<g>
</g>
<g>
</g>
<g>
</g>
<g>
</g>
<g>
</g>
<g>
</g>
<g>
</g>
<g>
</g>
<g>
</g>
</svg>
