<svg height="512pt" viewBox="0 0 512.00023 512" width="512pt" xmlns="http://www.w3.org/2000/svg"><path d="m255.691406 438.488281c0-113.800781 92.25-206.054687 206.050782-206.054687h3.96875c25.214843 0 45.65625 20.445312 45.65625 45.660156v3.96875c0 113.796875-92.25 206.050781-206.050782 206.050781h-3.96875c-25.214844 0-45.65625-20.441406-45.65625-45.660156zm0 0" fill="#378900"/><path d="m476.503906 371.894531h-69.730468c-6.417969 0-11.621094-5.203125-11.621094-11.621093 0-6.417969 5.203125-11.621094 11.621094-11.621094h69.730468c6.417969 0 11.621094 5.203125 11.621094 11.621094 0 6.417968-5.203125 11.621093-11.621094 11.621093zm0 0" fill="#216600"/><path d="m430.015625 418.382812h-69.730469c-6.417968 0-11.621094-5.203124-11.621094-11.621093s5.203126-11.621094 11.621094-11.621094h69.730469c6.417969 0 11.621094 5.203125 11.621094 11.621094s-5.203125 11.621093-11.621094 11.621093zm0 0" fill="#216600"/><path d="m283.746094 460.054688 176.320312-176.320313c6.421875-6.417969 16.828125-6.417969 23.246094 0s6.417969 16.824219 0 23.246094l-176.320312 176.320312c-6.421876 6.417969-16.828126 6.417969-23.246094 0v-.003906c-6.363282-6.40625-6.320313-16.792969 0-23.242187zm0 0" fill="#216600"/><path d="m345.640625 301.179688c-2.921875-.003907-5.742187 1.101562-7.886719 3.085937l-.003906.003906-.125.117188-.007812.007812c-6.164063 5.714844-11.933594 11.839844-17.265626 18.339844l-.007812.007813c-.035156.046874-.070312.089843-.105469.132812l-.007812.003906c-.074219.09375-.148438.183594-.222657.273438l-.011718.019531c-.03125.035156-.0625.074219-.09375.113281l-.019532.023438c-.070312.089844-.144531.175781-.214843.265625l-.023438.027343c-.027343.035157-.054687.070313-.085937.105469l-.019532.027344c-.074218.085937-.140624.175781-.214843.261719l-.023438.027344c-.027343.035156-.050781.066406-.078125.101562l-.03125.039062-.085937.105469-.019531.023438c-.03125.039062-.0625.082031-.097657.121093l-.039062.050782c-.019531.027344-.042969.050781-.0625.078125l-.039063.050781c-.023437.027344-.046875.058594-.074218.089844l-.03125.039062c-.03125.039063-.0625.078125-.09375.117188-.015626.019531-.027344.035156-.039063.050781-.019531.027344-.039063.050781-.058594.074219l-.050781.0625c-.015625.023437-.035156.042968-.050781.066406-.019531.023438-.039063.046875-.058594.070312-.027344.035157-.050781.066407-.078125.101563l-.054688.066406-.042968.054688-.058594.074219-.035156.042968-.207032.265625-.03125.042969-.066406.082031-.027344.039063c-.078124.09375-.148437.1875-.222656.28125l-.019531.023437c-.019531.027344-.050781.066407-.070313.09375l-.019531.023438c-.082031.105469-.15625.203125-.238281.304687l-.003906.007813c-.027344.035156-.050782.066406-.078125.101562l-.011719.011719c-.105469.140625-.21875.289062-.328125.429688-3.136719 4.074218-6.097656 8.277343-8.886719 12.609374-3.453125 5.410157-1.863281 12.597657 3.550782 16.046876 5.394531 3.441406 12.554687 1.871093 16.019531-3.507813 7.34375-11.394531 16.097656-21.820313 26.054687-31.023437 4.710938-4.355469 5-11.710938.644532-16.421876-2.203126-2.382812-5.296876-3.734374-8.539063-3.734374zm119.242187-45.5h-3.316406c-.03125 0-.070312 0-.101562 0h-.628906l-.082032.003906h-.339844c-.042968 0-.078124 0-.121093.003906h-.355469l-.09375.003906h-.28125l-.058594.003906h-.222656l-.058594.003907h-.140625l-.097656.003906h-.1875c-.046875.003906-.089844.003906-.140625.003906h-.03125c-.035156 0-.074219.003907-.109375.003907h-.199219l-.078125.003906h-.066406l-.078125.003906h-.140625l-.058594.003906h-.140625l-.089844.003906h-.050781l-.109375.003907h-.03125l-.140625.003906c-.050781 0-.09375 0-.144531.003906h-.136719l-.0625.003907h-.082031l-.058594.003906h-.078125l-.0625.003906h-.082031l-.0625.003906h-.078125l-.0625.003906h-.082031l-.058594.003907h-.078125l-.0625.003906h-.085937l-.054688.003906-.09375.003907h-.046875l-.136719.003906h-.042968l-.101563.003906-.050781.003906-.085938.003906h-.054687l-.089844.003907h-.054687l-.085938.003906-.054688.003906h-.082031l-.0625.003907-.078125.003906h-.0625l-.078125.003906-.0625.003906h-.082031l-.058594.003906-.097656.003907h-.042969c-.046875.003906-.089843.003906-.140625.007812h-.011718l-.125.003907-.054688.003906-.085938.003906-.058593.003906h-.082031l-.058594.003906-.082032.003907-.0625.003906h-.074218l-.066406.003906-.078126.003907-.058593.003906-.085938.003906-.054687.003906-.09375.003906h-.042969c-.03125.003907-.066406.003907-.097656.003907l-.046875.003906-.136719.007813h-.046875l-.089844.003906-.140625.007812-.074219.003906-.0625.003907-.078124.003906-.0625.003906-.210938.011719h-.066406l-.074219.007812h-.0625l-.078125.007813h-.0625l-.074219.003906-.140625.007813-.0625.003906c-.046875.003906-.09375.007812-.140625.007812l-.066406.003907-.140625.007812-.070312.007813-.070313.003906-.066406.003906-.074219.003906-.070312.003907-.066407.003906-.210937.011719-.066406.003906-.210938.011719-.066406.003906-.070313.003906-.085937.007813c-.039063 0-.078125.003906-.121094.007812l-.066406.003906-.074219.003907-.132813.007812-.140624.007813-.070313.007812-.066406.003906-.074219.003907-.066406.003906-.074219.007813-.0625.003906-.078125.003906-.0625.003906-.082031.007813-.054688.003906-.09375.003906-.046875.003907c-.046875.003906-.082031.007812-.128906.011718h-.035156c-.03125.003906-.078125.007813-.109375.007813l-.0625.003906-.078125.007813-.058594.003906-.078125.003906-.0625.007812-.078125.003907-.066406.003906-.070313.007813-.066406.003906-.078125.007812-.0625.003906-.078125.003907-.058594.007812-.085937.003907-.054688.003906-.089844.007812-.046874.003906-.125.011719h-.015626l-.136718.011719-.039063.003906c-.03125 0-.070312.003906-.097656.007813l-.058594.003906-.082031.007813-.0625.003906-.074219.007812-.0625.003906-.078125.007813-.0625.003906-.074218.007813-.0625.003906-.078126.007812-.066406.003907-.074218.007812-.058594.003907-.089844.007812-.050781.003906-.101563.011719h-.035156l-.136719.011719-.0625.007812-.074219.007813-.0625.003906-.078124.007813-.0625.003906-.074219.007812-.0625.007813-.078125.003906-.058594.007813-.085938.007812-.054687.003906-.078125.007813-.0625.007812-.078125.003907-.058594.007812-.078125.007812-.0625.003907-.078125.007812-.105469.011719-.085937.007812-.0625.003907-.078125.007812-.058594.007813-.078125.007812-.066406.003906-.140625.015626-.066406.007812-.070313.003906-.066406.007813-.070313.007812-.066406.007813-.074218.007812-.066407.003906-.066406.007813-.078125.007813-.058594.007812c-.03125.003906-.074218.007812-.101562.007812l-.035156.003907c-.046876.007812-.089844.011719-.136719.015625l-.046875.003906-.089844.011719-.0625.003906-.074219.007813-.066406.007812-.074219.007812-.0625.007813-.210937.023437-.0625.003907-.078125.011719-.0625.003906-.078125.011718-.058594.003907-.082031.011719-.054688.003906-.101562.011718-.035156.003907-.136719.015625-.046875.003906-.089844.011719-.058594.007812-.078125.007813-.0625.007812-.074219.007813-.0625.007812-.078124.007813-.058594.007812-.078125.007813-.0625.007812-.070313.011719-.066406.003906-.078125.011719-.058594.003906-.136719.019531-.097656.011719-.039062.003907-.136719.015624-.035156.003907c-.035157.003906-.066407.007812-.101563.011719l-.046875.007812c-.03125.003906-.0625.007812-.089843.011719l-.058594.003906-.078125.011719-.058594.007812-.082031.007813-.136719.019531-.054687.003906-.082032.011719-.058594.007813-.082031.011718-.054687.003906-.085938.011719-.050781.007813-.097656.011718-.039063.003907-.136718.019531-.046876.003906-.089843.011719-.136719.019531-.058594.007813-.078125.007812-.058593.007813-.078126.011718-.058593.007813-.136719.019531-.078125.007813-.0625.007812-.082031.011719-.050782.007812-.089843.011719-.046875.007813-.105469.011718-.03125.003907c-.046875.007812-.089844.015625-.136719.019531l-.019531.003906-.121094.015625-.136719.019531-.042968.007813-.09375.011719-.050782.007812-.082031.011719-.058593.007813-.273438.039062-.085938.011719-.050781.007812-.085937.011719-.050782.007812-.101562.011719-.035156.007813c-.09375.011718-.175782.023437-.273438.039062l-.042968.003906c-.03125.007813-.0625.011719-.089844.015626l-.054688.007812-.085937.011719-.050781.007812-.085938.011719-.050781.007812-.089844.015626-.042969.003906-.089844.015625-.050781.007812-.089843.011719-.042969.007812-.097657.015626-.042968.003906-.101563.015625-.035156.007812c-.039063.003907-.078125.011719-.121094.015625l-.023437.003906-.128906.023438-.035157.003906-.097656.015625-.050781.007813-.089844.011718-.046875.007813-.089844.015625-.046875.007812-.09375.011719-.042968.007813-.089844.015625-.140625.023437-.042969.003906-.097656.015626-.039063.007812-.136719.019531-.277343.046875h-.007813l-.128906.023438-.027344.003906-.105468.015625-.039063.007813-.101563.015624-.039062.007813-.097656.015625-.039063.007812-.09375.011719-.140625.023438-.042968.007812-.105469.019531-.027344.003907-.125.019531-.011719.003906c-.140625.023438-.277344.046875-.417968.070313l-.019532.003906-.113281.019531-.035156.003906-.101563.019532-.039062.007812c-.035156.003906-.0625.007813-.101563.015625l-.035156.007813-.097656.015625-.039063.007812-.101562.015625-.035156.007813-.105469.019531-.03125.003906c-.042969.007813-.074219.011719-.117188.019532l-.019531.003906c-.140625.027344-.269531.050781-.410156.074218l-.035156.003907-.101563.019531-.136719.027344-.042968.003906-.09375.019531-.042969.007813-.09375.015625-.042969.007812-.097656.019531-.035156.003907c-.035157.007812-.070313.015625-.105469.019531l-.03125.007812-.121094.023438h-.011719c-.140625.027344-.277344.050781-.417968.078125l-.011719.003906-.125.023438-.023438.003906-.109375.019531-.03125.007813-.109375.019531-.027343.003906c-.035157.007813-.070313.015625-.105469.019532l-.035157.007812-.105468.019531-.027344.007813-.113281.019531-.027344.003906-.125.027344h-.007813c-.136718.027344-.273437.054687-.414062.082031h-.011719l-.125.023438-.023437.007812-.113282.019532-.023437.007812c-.035156.003906-.078125.011719-.113281.019531l-.027344.007813-.105469.019531-.035156.007813-.105469.019531-.027344.003906-.113281.023437-.023437.003907-.125.027343h-.007813c-.140625.027344-.277343.058594-.417969.085938-.046874.007812-.089843.019531-.136718.027344l-.015625.003906-.117188.023438-.03125.007812-.105469.019531-.03125.007813c-.035156.007812-.070312.011718-.101562.019531l-.035156.007813c-.035156.007812-.074219.015624-.109375.023437l-.023438.003906c-.035156.007813-.082031.019531-.117187.023438l-.015625.003906c-.234375.050781-.457031.097656-.6875.144531l-.007813.003906-.128906.027344-.136719.027344-.023437.007812-.109375.023438-.027344.003906-.113281.027344-.15625.03125c-.230469.050781-.457032.101562-.6875.152344l-.136719.027344-.007813.003906c-.046874.011718-.082031.019531-.128906.027344l-.011718.003906-.121094.027344-.019532.003906-.125.027344-.007812.003906-.128906.027344-.007813.003906c-.277343.058594-.546875.121094-.824219.183594l-.011718.003906-.125.03125h-.011719l-.121094.027344-.019531.003906-.125.03125h-.007812c-.367188.085937-.730469.171875-1.097657.261718h-.003906l-.132813.03125h-.003906c-7.652344 1.835938-15.179687 4.167969-22.527344 6.980469-5.996093 2.296875-8.992187 9.015625-6.695312 15.007813 2.296875 5.996094 9.015625 8.992187 15.011719 6.695312 18.140625-6.9375 37.402343-10.480468 56.828125-10.453125h3.132812c.152344-.007812.304688.011719.453125.054688 5.925781 2.464843 12.726563-.347657 15.1875-6.277344 2.457031-5.917969-.339843-12.710937-6.257812-15.179687-.234375-.097657-.472657-.191407-.714844-.285157h-.003906l-.0625-.023437h-.003907l-.0625-.023438-.003906-.003906-.0625-.023438h-.003906l-.0625-.023437h-.003906l-.0625-.023437-.003906-.003907-.0625-.019531-.007813-.003906-.070313-.023438-.054687-.019531-.070313-.023437-.007812-.003907-.070312-.023437-.058594-.023438h-.007813l-.058593-.019531-.007813-.003906-.058594-.019531-.007812-.003907-.0625-.019531-.007813-.003906-.058594-.019532-.007812-.003906-.054688-.015625-.015624-.003906-.054688-.019531-.015625-.003906-.050781-.015626-.011719-.003906-.054687-.019531-.015626-.003906-.050781-.015625-.015625-.003906-.054687-.015626-.015625-.007812-.054688-.015625-.015625-.003906-.050781-.015625-.019531-.003906-.070313-.023438-.046875-.011719-.070312-.023437-.019531-.003906-.050782-.015626-.019531-.003906-.050781-.015625-.019532-.003906-.050781-.015625-.019531-.003906-.046875-.015625-.023437-.003907-.050782-.015624-.019531-.003907-.046875-.015625-.023438-.003906-.046874-.011719-.023438-.007812-.046875-.011719-.023437-.007812-.046876-.011719-.023437-.003907-.046875-.011718-.023438-.007813-.046874-.011719-.023438-.007812-.046875-.007812-.023437-.007813-.042969-.011719-.027344-.007812-.039063-.007813-.035156-.007812-.039062-.011719-.03125-.003906-.039063-.011719-.03125-.007813-.039062-.007812-.03125-.007812-.039063-.007813-.03125-.007813-.039062-.007812-.03125-.007812-.039063-.007813-.03125-.007813-.042969-.011718-.027343-.003906-.042969-.011719-.03125-.003907-.039062-.011718-.027344-.003906-.046875-.011719-.023438-.003907-.050781-.011718-.019531-.003906-.050781-.007813-.023438-.007813-.050781-.007812-.023438-.007812-.070312-.011719-.050781-.011719-.070313-.011719-.023437-.007812-.050782-.007813-.070312-.011718-.023438-.007813-.050781-.007813-.023437-.003906-.050782-.007812-.023437-.003906-.046875-.011719-.023438-.003907-.050781-.007812-.023437-.003906-.050782-.007813-.019531-.003906-.050781-.007813-.027344-.003906-.046875-.011718-.09375-.015626-.050781-.007812-.09375-.015625-.054688-.007813h-.015625l-.054687-.007812-.019532-.003906-.054687-.007813-.015625-.003906-.054688-.007813-.019531-.003906-.054687-.007812h-.015625l-.058594-.007813-.019531-.003906-.054688-.007813h-.015625l-.058593-.007812-.015626-.003906-.058593-.007813h-.015625l-.058594-.007812-.015625-.003907-.058594-.007812h-.015625l-.058594-.007812-.019531-.003907-.054687-.003906-.019532-.003906-.058593-.007813h-.015625l-.058594-.007812h-.015625l-.058594-.007813h-.015625l-.058594-.007812h-.015624l-.058594-.007813h-.015625l-.0625-.007812h-.011719l-.0625-.007813h-.015625l-.058594-.007812h-.011719l-.0625-.003907-.015624-.003906-.0625-.003906h-.011719l-.0625-.007812h-.011719l-.0625-.003907-.011719-.003906-.0625-.003906h-.011719l-.0625-.007813h-.011718l-.0625-.003906h-.011719l-.0625-.003906-.011719-.003906-.066406-.003907h-.007812l-.066407-.003906h-.011719l-.0625-.003906h-.011718l-.066406-.003907-.011719-.003906-.0625-.003906h-.011719l-.066406-.003906h-.011719l-.0625-.003906h-.011719l-.066406-.003907h-.078125l-.007813-.003906h-.078124l-.066407-.003906h-.011719l-.0625-.003907h-.089843l-.066407-.003906h-.078124l-.007813-.003906h-.152344l-.070312-.003906h-.378907zm0 0" fill="#9fe27c"/><path d="m491.710938 244.511719c-6.417969.003906-11.621094 5.210937-11.617188 11.628906 0 2.746094.976562 5.402344 2.746094 7.496094 3.4375 4.03125 5.308594 9.160156 5.285156 14.457031v3.96875c0 100.800781-82.007812 182.808594-182.808594 182.808594h-3.96875c-1.355468 0-2.710937-.121094-4.042968-.363282-6.316407-1.140624-12.363282 3.058594-13.503907 9.371094-1.140625 6.316406 3.050781 12.355469 9.363281 13.503906 1.824219.328126 3.667969.546876 5.515626.652344h.003906l.058594.003906h.007812l.058594.003907h.007812l.058594.003906h.003906c.105469.007813.207032.011719.308594.015625h.015625l.046875.003906h.023438l.042968.003906h.066406l.027344.003907h.066406l.042969.003906h.023438c.050781.003906.101562.003906.152343.007813h.097657l.035156.003906h.101563l.039062.003906h.136719l.03125.003906h.132812l.042969.003906h.171875l.035156.003907h.171875l.046875.003906h.261719l.042969.003906h4.277343c113.796876 0 206.050782-92.253906 206.050782-206.050781v-4.277344l-.003906-.042968v-.25l-.003907-.058594v-.210938l-.003906-.03125v-.136718l-.003906-.042969v-.097657l-.003907-.070312v-.070312l-.003906-.027344v-.070313l-.003906-.039062v-.101563l-.003906-.042968v-.070313l-.003906-.027344v-.070312c-.003907-.019531-.003907-.046875-.003907-.066407v-.015624l-.003906-.054688v-.070312l-.003906-.027344v-.042969l-.003907-.027344v-.070312l-.003906-.042969v-.027344l-.003906-.042968v-.027344l-.003906-.039063v-.03125l-.003906-.066406v-.03125l-.003907-.035156v-.035157l-.003906-.035156v-.03125l-.003906-.039062v-.03125l-.003907-.035156v-.035157l-.007812-.070312v-.035157l-.003906-.03125v-.039062l-.003906-.03125-.003907-.050781-.003906-.042969v-.042969l-.003906-.027343v-.039063l-.003907-.03125-.003906-.039063v-.03125l-.003906-.039062v-.03125l-.007812-.070312v-.03125l-.003907-.039063-.003906-.023437v-.042969l-.003906-.003907-.003907-.097656-.003906-.03125-.003906-.039062v-.03125l-.003906-.035156-.003906-.03125-.003907-.039063v-.03125l-.003906-.035156-.003906-.03125-.003907-.039063v-.027344l-.003906-.039062-.003906-.027344-.003906-.042968v-.027344l-.007813-.070313-.003906-.03125-.003906-.039062v-.03125l-.003907-.039063-.003906-.027344-.003906-.042968-.003906-.023438-.003906-.042968v-.023438l-.003907-.046875-.003906-.019531-.003906-.046875v-.015625l-.007813-.050782v-.003906c-.007812-.058594-.011718-.117187-.019531-.175781v-.015625l-.003906-.042969-.003907-.027343-.003906-.042969-.003906-.023438-.003906-.039062-.003906-.027344-.003907-.042969-.003906-.023437-.003906-.042969v-.023438l-.007813-.042968v-.007813c-.003906-.054687-.011718-.113281-.019531-.167969l-.003906-.019531-.003907-.050781v-.015625l-.011718-.070313-.003906-.042968-.003907-.019532-.003906-.046874-.003906-.019532-.003907-.050781-.003906-.011719c-.007812-.078125-.019531-.160156-.03125-.242187 0-.019531-.003906-.035157-.007812-.054688v-.015625l-.007813-.046875-.003906-.019531-.003906-.042969-.003907-.023437-.003906-.046875-.003906-.015625-.007812-.050782v-.007812c-.019532-.125-.035157-.246094-.054688-.371094v-.007812l-.007812-.054688v-.007812l-.011719-.058594v-.003906c-.019531-.144532-.042969-.292969-.066407-.4375l-.011718-.0625v-.003906l-.011719-.058594v-.003906c-1.328125-8.136719-4.847656-15.761719-10.179687-22.054688-2.207032-2.617188-5.457032-4.121094-8.878907-4.117188zm0 0" fill="#216600"/><g fill="#6ec030"><path d="m237.261719 483.300781 204.375-204.378906 18.429687-18.429687c6.417969-6.417969 16.824219-6.417969 23.246094 0 6.417969 6.417968 6.417969 16.824218 0 23.242187l-222.808594 222.808594c-6.417968 6.417969-16.824218 6.417969-23.242187 0-6.363281-6.410157-6.324219-16.792969 0-23.242188zm0 0"/><path d="m430.015625 325.410156c-6.417969 0-11.621094-5.203125-11.621094-11.621094v-46.488281c0-6.417969 5.203125-11.621093 11.621094-11.621093s11.621094 5.203124 11.621094 11.621093v46.488281c0 6.417969-5.203125 11.621094-11.621094 11.621094zm0 0"/><path d="m313.796875 441.625c-6.417969 0-11.621094-5.203125-11.621094-11.621094v-69.730468c0-6.417969 5.203125-11.621094 11.621094-11.621094 6.421875 0 11.625 5.203125 11.625 11.621094v69.730468c0 6.417969-5.203125 11.621094-11.625 11.621094zm0 0"/><path d="m383.527344 371.894531c-6.417969 0-11.621094-5.203125-11.621094-11.621093v-69.730469c0-6.417969 5.203125-11.621094 11.621094-11.621094 6.421875 0 11.625 5.203125 11.625 11.621094v69.730469c0 6.417968-5.203125 11.621093-11.625 11.621093zm0 0"/><path d="m476.503906 348.652344h-69.730468c-6.417969 0-11.621094-5.203125-11.621094-11.621094s5.203125-11.621094 11.621094-11.621094h69.730468c6.417969 0 11.621094 5.203125 11.621094 11.621094s-5.203125 11.621094-11.621094 11.621094zm0 0"/><path d="m430.015625 395.140625h-69.730469c-6.417968 0-11.621094-5.203125-11.621094-11.621094 0-6.421875 5.203126-11.625 11.621094-11.625h69.730469c6.417969 0 11.621094 5.203125 11.621094 11.625 0 6.417969-5.203125 11.621094-11.621094 11.621094zm0 0"/></g><path d="m38.523438 286.898438 248.386718-248.386719c51.347656-51.347657 134.597656-51.347657 185.945313 0 51.347656 51.347656 51.347656 134.597656 0 185.945312l-248.386719 248.386719c-51.347656 51.347656-134.597656 51.347656-185.945312 0-51.347657-51.347656-51.347657-134.597656 0-185.945312zm0 0" fill="#c9e5fc"/><path d="m464.867188 82.445312c-.464844 0-.9375.007813-1.40625.023438-25.664063.761719-45.847657 22.183594-45.085938 47.847656.351562 10.621094-3.726562 20.90625-11.261719 28.398438l-248.382812 248.386718c-6.902344 6.996094-16.246094 11.035157-26.066407 11.265626-25.664062.757812-45.851562 22.179687-45.089843 47.84375.746093 25.117187 21.3125 45.09375 46.441406 45.109374.457031 0 .917969-.007812 1.378906-.019531l.042969-.003906.132812-.003906h.0625l.128907-.003907.0625-.003906.128906-.003906h.066406l.125-.003906.066407-.003906.125-.003907.066406-.003906.128906-.003906.0625-.003907.125-.003906.066406-.003906.109375-.003906.082031-.003906.101563-.003907.09375-.003906.089844-.003906.097656-.003907.09375-.003906.097656-.003906.09375-.003906.089844-.003906.101563-.003907.09375-.003906.09375-.007813.097656-.003906.09375-.003906.082031-.003906.105469-.003906.089844-.007813.105468-.003906.085938-.003907.074218-.003906.121094-.007812.054688-.003906.140625-.007813.042969-.003906.152343-.007813h.046875l.144532-.011718h.046874l.148438-.011719h.042969l.15625-.011719h.03125l.164062-.011719.03125-.003906.167969-.007813.023438-.003906.183593-.011718h.007813c23.660156-1.585938 46.445312-9.5625 65.925781-23.082032l.003906-.003906c.054688-.035156.109375-.074219.160157-.109375l.015624-.011719.152344-.105468.011719-.011719c.050781-.035157.105469-.070313.15625-.105469l.011719-.011719c.054687-.035156.109375-.074219.160156-.113281h.003906l.164063-.117188.003906-.003906c.253906-.175781.503906-.355468.753906-.535156l.007813-.003906c.050781-.039063.105468-.074219.15625-.113282l.019531-.011718c.046875-.035156.097656-.070313.144531-.105469l.023438-.015625.140625-.101562.027343-.023438.136719-.097656.03125-.019532c.042969-.035156.085938-.066406.128907-.097656l.035156-.023437c.042968-.035157.085937-.066407.128906-.097657l.035156-.023437c.042969-.03125.085938-.0625.128906-.09375l.035157-.027344.128906-.09375.035156-.027343c.042969-.03125.082031-.058594.125-.089844l.039063-.03125c.042968-.03125.082031-.058594.121094-.089844l.039062-.027344c.085938-.0625.164062-.121094.246094-.183594l.03125-.023437.128906-.097656.042969-.03125c.039062-.027344.078125-.058594.117187-.089844l.046875-.035156c.039063-.027344.078125-.058594.117188-.085938l.042969-.03125c.039062-.03125.078124-.058593.117187-.089843l.046875-.035157.113281-.085937.050781-.035156.109376-.085938.050781-.039062c.039062-.027344.074219-.054688.109375-.082032l.054687-.039062c.03125-.027344.066407-.050782.101563-.078125.019531-.015625.039062-.03125.058594-.046875l.097656-.074219.0625-.046875.085937-.066406.078125-.058594.066406-.054688.09375-.070312.066407-.050781.09375-.074219.066406-.050781.09375-.074219.066406-.046875.09375-.078125.066407-.046875.082031-.066406.074219-.058594.082031-.0625.074219-.058594.082031-.066406.074219-.058594.082031-.0625.074219-.0625.082031-.0625c.023437-.019531.050781-.039062.074219-.058593l.085937-.066407.0625-.050781c.03125-.027344.0625-.050781.09375-.078125l.054687-.039063.105469-.085937.050781-.042969.105469-.082031.054688-.042969c.035156-.027344.070312-.058594.105469-.085937l.050781-.042969.105469-.082031.054687-.042969.105469-.085938.050781-.042968c.035156-.027344.070313-.054688.105469-.085938l.050781-.039062c.035156-.03125.070313-.058594.109375-.089844l.046875-.039062.101563-.082032.050781-.042968c.035156-.027344.066406-.050782.097656-.078126l.058594-.046874c.03125-.027344.0625-.054688.097656-.082032l.054687-.042968.097657-.082032.050781-.042968.105469-.085938.042969-.035156.109374-.089844.046876-.039062c.039062-.03125.070312-.058594.113281-.09375.011719-.011719.027343-.023438.042969-.035157l.113281-.09375.039062-.035156c.039063-.03125.078125-.0625.117188-.097656l.039062-.03125c.039063-.035157.074219-.066407.113281-.097657l.042969-.035156c.035157-.03125.078125-.0625.113281-.09375l.039063-.035156.117187-.097656.039063-.03125c.035156-.035156.078125-.066406.117187-.101563l.035157-.03125.113281-.09375.042969-.035156c.035156-.03125.070312-.0625.105469-.09375l.042968-.035156.105469-.089844.046875-.039063c.035156-.03125.074219-.0625.109375-.09375l.03125-.027343.121094-.105469.035156-.027344.117187-.101562.035157-.03125c.039062-.035156.078125-.070313.117187-.101563l.039063-.03125.117187-.101562.035156-.03125c.039063-.035157.078126-.070313.117188-.101563l.035156-.035156c.039063-.03125.078125-.066406.117188-.101562l.035156-.03125c.039062-.035157.078125-.066407.121094-.101563l.035156-.03125c.035156-.035156.078125-.070313.117188-.105469l.03125-.027344.121093-.109374.03125-.023438c.042969-.035156.082031-.074219.125-.109375l.023438-.019531.121093-.113282.027344-.019531c.039063-.039062.082032-.074219.121094-.109375l.023438-.019531c.039062-.039063.085937-.078125.125-.113281l.023437-.023438c.042969-.035156.085937-.074218.125-.109375l.027344-.027343.125-.109376.027343-.023437c.042969-.039063.082032-.074219.125-.113281l.027344-.023438c.039063-.039062.082032-.074218.121094-.113281l.03125-.023437.121094-.109376.03125-.027343c.039062-.039063.078125-.074219.121094-.113281l.027343-.027344c.042969-.035156.082031-.070313.121094-.109375l.03125-.027344c.039063-.035156.082031-.074219.121094-.113281l.023437-.019532c.042969-.039062.085938-.078124.128906-.117187l.019532-.019531c.046875-.039063.089844-.078125.132812-.121094l.015625-.011719c.042969-.042969.089844-.082031.132813-.125l.011718-.007812c.042969-.042969.085938-.082031.132813-.125l.011719-.011719.132812-.121094.019532-.019531.128906-.117187.019531-.019532.128906-.121094.019531-.019531c.042969-.039062.085938-.082031.128907-.117187l.019531-.023438c.046875-.039062.085938-.078125.128906-.121094l.023438-.019531c.042968-.039062.082031-.078125.125-.117187l.023437-.023438c.042969-.039062.082031-.078125.125-.117187l.023438-.019531c.042969-.042969.082031-.082032.125-.125l.019531-.015626c.042969-.042968.085938-.082031.132812-.125l.015626-.015624c.042968-.042969.085937-.082032.132812-.125l.011719-.015626c.046875-.042968.089843-.085937.136719-.128906l.007812-.007812c.046875-.046875.09375-.085938.140625-.132813l.003906-.003906.136719-.132813.007812-.007812c.046876-.042969.089844-.085938.136719-.132812l.011719-.007813c.042969-.042969.089844-.089844.136719-.132813l.140625-.140624.019531-.015626.128906-.125.015625-.019531.132813-.125.160156-.160156c.042969-.042969.085937-.085937.128906-.125l.019531-.019531c.042969-.039063.085938-.082032.128907-.125l.015625-.019532.128906-.125.015625-.015624c.046875-.042969.089844-.085938.132813-.128907l.011718-.015625c.046875-.042968.089844-.085937.132813-.132812l.007812-.007813.140625-.136719.101563-.101562c.144531-.144531.4375-.4375.871093-.871094l.421876-.421875c.019531-.019531.042968-.042969.0625-.0625l.21875-.21875c.085937-.085937.175781-.175781.265624-.265625l.867188-.867187c.035156-.035157.066406-.066407.101562-.101563l.125-.125c.117188-.117187.238282-.238281.363282-.363281l1.136718-1.136719c.105469-.101562.207032-.207031.316407-.316406l2.308593-2.308594c.039063-.039062.078126-.078125.117188-.117187l.953125-.949219.019531-.023438.71875-.71875c.238282-.238281.488282-.488281.734375-.734374l.925781-.929688.046876-.042969.128906-.128906c.117187-.117187.234375-.234375.355468-.355469l.851563-.851562c.039063-.039063.078125-.078125.117187-.117188l.867188-.867187.101562-.105469 3.339844-3.335938 6.566406-6.566406c.089844-.089844.191407-.191406.285157-.285156l1.046875-1.046875c.132812-.132813.273437-.273437.40625-.40625l.765625-.765625c.070312-.074219.132812-.132812.207031-.207031l.054688-.054688c.144531-.148437.28125-.285156.429687-.429687l4.671875-4.671875.179688-.179688.035156-.039062c48.21875-48.222657 140.410156-140.414063 187.707031-187.710938l.070313-.070312c1.132812-1.132813 2.246093-2.246094 3.324218-3.324219l.425782-.429688.058593-.054687.207031-.207031c.253907-.253906.511719-.511719.765626-.765625l.535156-.535157c.308594-.3125.613281-.613281.917968-.917968l.285157-.285156c2.324219-2.324219 4.492187-4.492188 6.507812-6.507813l.058594-.058594c1.167969-1.167969 2.277344-2.28125 3.335937-3.335937l.101563-.105469c.292969-.292969.582031-.582031.867187-.867187l.117188-.117188c.289062-.289062.574219-.570312.855469-.851562l.484375-.484376.042968-.046874c.316407-.316407.621094-.621094.925782-.925782l.734375-.734375c.246093-.246093.484375-.484375.722656-.71875l.019531-.019531c.328125-.328125.640625-.644531.949219-.953125l.121094-.117187c.644531-.648438 1.253906-1.257813 1.820312-1.824219l.367188-.367188c.042969-.039062.078125-.078125.117187-.117187l.320313-.316406c.40625-.40625.78125-.785157 1.136719-1.136719l.359374-.363281c.042969-.039063.085938-.082032.125-.121094l.105469-.105469c.3125-.3125.601563-.601563.867188-.867187l.261719-.265626c.078124-.074218.148437-.148437.222656-.21875l.058594-.0625c.15625-.152343.296874-.292968.425781-.421874l.867187-.867188.101563-.105469.078125-.074219.03125-.03125.042968-.046874.03125-.027344c.015626-.015625.03125-.035156.050782-.050782l.019531-.019531.054687-.058593.027344-.023438.050782-.050781.027343-.03125.152344-.152344.046875-.050781.03125-.027344.078125-.078125.042969-.046875.035156-.03125.039062-.042969.035157-.039062.042969-.039063.078124-.078125.03125-.035156c.015626-.011719.027344-.027344.042969-.042969l.035157-.035156.039062-.042969.035156-.035156.042969-.039063.03125-.035156.078125-.078125.039062-.042969.035157-.035156.039062-.042968.082031-.082032.027344-.03125.078125-.078125.046875-.050781.027344-.023438.058594-.0625.015625-.015624c.023437-.027344.046875-.050782.070312-.074219l.003907-.003907.074218-.078124h.003906c.046876-.054688.097657-.105469.148438-.160157h.003906c.023438-.027343.046875-.050781.070313-.078125l.015625-.015625c.019531-.019531.039062-.042969.058594-.0625l.027343-.027343.046875-.050782.105469-.105468.042969-.050782.074218-.074218.035157-.039063.039062-.042969.035157-.035156.039062-.042969.035156-.039062.039063-.039063.035156-.039062.039063-.039063.035156-.039062.039062-.039063.035156-.039062.039063-.039063.035156-.039062.039063-.039063.03125-.039062.042968-.042969.03125-.035156.042969-.042969.03125-.035156.039063-.042969.035156-.039063.039062-.039062.070313-.078125.039063-.039063.03125-.035156.042968-.042968.027344-.035157.042969-.046875.03125-.027344.042969-.050781.027343-.03125.046875-.046875.027344-.03125.042969-.046875c.023437-.023437.042969-.046875.066406-.070312l.003906-.007813c.027344-.027344.050781-.050781.074219-.078125l.039062-.042969.03125-.035156.035157-.039062.039062-.042969.035157-.035156.039062-.042969c.011719-.011719.023438-.027344.035156-.039062.011719-.011719.023438-.027344.035156-.039063l.035157-.039063.039062-.042968.03125-.035156.039063-.042969.035156-.039063.039062-.039062.070313-.078125.039063-.042969.03125-.039062.039062-.039063.070312-.078125.035157-.042969.039062-.039062.035157-.039063.035156-.042968.035156-.035157.035156-.042969.035156-.039062.039063-.042969.03125-.035156.039063-.042969.105468-.117187.039063-.042969.03125-.035156.039062-.042969.03125-.035156.042969-.046875.027344-.03125.042968-.046875.027344-.03125.042969-.050781.03125-.035157.039063-.042969.039062-.046874.03125-.03125c.015625-.019532.035156-.039063.050781-.058594l.019531-.023438.058594-.066406.03125-.035156.050782-.058594.039062-.039062.03125-.039063c.011719-.011719.023438-.027344.035156-.042969l.140625-.15625c.011719-.015625.023438-.027344.035157-.042968.011718-.011719.023437-.027344.035156-.039063l.035156-.039063.035156-.042968.070313-.078125.039062-.042969.027344-.035156.039063-.046875.03125-.035157.039062-.042968.035156-.039063.035156-.042969.03125-.035156.039063-.046875.03125-.035156.039063-.046875.03125-.03125c.011718-.015625.027343-.03125.039062-.046875l.03125-.035156.039062-.046875.03125-.035156.039063-.046876.03125-.035156c.011719-.015625.023437-.03125.035156-.046875l.03125-.035156.039063-.042969.03125-.039062.039062-.042969.03125-.035156.039063-.046875.03125-.035156.039062-.050782.027344-.03125.046875-.050781.023438-.027344.050781-.0625.015625-.019531.058594-.066406.011718-.015625c.019532-.023438.039063-.046875.058594-.070313l.011719-.011718c.070312-.082032.136719-.164063.207031-.246094l.007812-.007813c.019532-.023437.042969-.050781.0625-.074219l.015626-.023437.050781-.058594.070312-.082031.023438-.03125.042969-.050781.027343-.03125.042969-.050781.027344-.03125.039062-.050782.027344-.03125.039062-.050781.03125-.035156.039063-.042969.03125-.039062.035156-.042969.03125-.039063.035157-.042968.035156-.039063.035156-.042969.03125-.039062c.011719-.015625.023438-.03125.039062-.046875l.027344-.035157c.011719-.015624.027344-.03125.039063-.046874l.027343-.03125.042969-.050782.027344-.035156.039063-.046875.027343-.035156.039063-.050781.027344-.03125.042968-.050782.023438-.03125c.015625-.019531.03125-.035156.046875-.054687l.023437-.027344.046875-.058594.019531-.023437.046876-.058594.019531-.023438.050781-.0625.015625-.019531.050781-.066406.019532-.019531.132812-.164063.015625-.023437.050781-.058594.015625-.023438.050781-.058593.027344-.035157.039063-.046874.03125-.042969.035156-.039063.03125-.042968.035156-.042969.03125-.035157.035157-.046874.027343-.035157.039063-.046875.03125-.035156.035156-.050781.027344-.035157.039062-.046874.03125-.035157.035156-.046875.027344-.035156.039063-.046875.027343-.035156.039063-.050781.027344-.03125.039062-.050782.027344-.035156.039063-.046875.027343-.035156.035157-.046875.03125-.039063.039062-.046875.027344-.035156.035156-.046875.03125-.035156.035156-.046875.027344-.039063.039062-.046875.027344-.035156.039063-.050781.023437-.03125.046875-.058594.019531-.023437.054688-.074219.007812-.007813.058594-.074218.007813-.011719c.089843-.113281.175781-.226563.261719-.339844l.003906-.003906.0625-.078125.007812-.015625.054688-.070313.019531-.023437.046875-.058594.019531-.027344.042969-.058593.023438-.023438.042968-.058594.019532-.027344.042968-.058593.019532-.027344c.015624-.019531.03125-.035156.046874-.054687l.023438-.03125.039062-.050782.027344-.035156.035156-.050781.027344-.03125.039063-.054688.023437-.03125c.015625-.019531.027344-.035156.042969-.054687l.019531-.03125.042969-.050782.023437-.03125.039063-.054687.023437-.03125.039063-.050781.027344-.035156.035156-.046876.027344-.039062.035156-.046875.027344-.035156.039062-.050781.027344-.035157.035156-.046875.027344-.035156.039063-.050781.023437-.035157.042969-.054687.019531-.027344.046875-.0625.015625-.023437.054687-.070313.007813-.015625c.085937-.113281.171875-.226562.253906-.339844l.007813-.007812.054687-.078125.015625-.015625c.015625-.023438.03125-.046875.046875-.070312l.015625-.019532c.015625-.023437.03125-.042968.050782-.0625l.015624-.027344c.015626-.019531.03125-.039062.042969-.058593l.019531-.027344.042969-.058594.023438-.027343.039062-.058594.023438-.027344.039062-.054688.023438-.03125c.011719-.019531.027343-.039062.039062-.054687l.023438-.03125.039062-.054687.027344-.035157.035156-.046875.023438-.035156.039062-.054688.023438-.027343.039062-.058594.023438-.027344c.011719-.019531.023437-.035156.039062-.054687l.023438-.035156.039062-.050782.019531-.035156.039063-.050781.023437-.035157.039063-.054687.023437-.027344.042969-.058593.015625-.027344.046875-.0625.015625-.023438.046875-.066406.015625-.019531.046875-.066407.015625-.019531.046875-.070312.011719-.015625c.105469-.144532.207031-.289063.308594-.433594l.003906-.003906.058594-.082032.011718-.015624c.015626-.023438.03125-.046876.046876-.070313l.015624-.019531.042969-.066406.015625-.023438.046875-.066406.015625-.019532c.015625-.019531.03125-.042968.046875-.0625l.015625-.023437.042969-.066406.015625-.019531.046875-.066407.015625-.023437c.011719-.019532.027344-.042969.042969-.0625l.015625-.023438.042968-.0625.019532-.023437.042968-.0625.015626-.027344c.015624-.019531.03125-.039063.042968-.058594l.019532-.027343c.011718-.019532.027343-.039063.042968-.0625l.015625-.023438.042969-.0625.019531-.023438c.011719-.023437.027344-.039062.039063-.058593l.019531-.03125.042969-.058594.015625-.027344c.011719-.015625.03125-.039062.042969-.058593l.019531-.027344.039062-.058594.019531-.027344.042969-.066406.015625-.019531.046875-.070313.011719-.015625.054688-.082031.003906-.003906c.160156-.234375.316406-.46875.476562-.703125l.007813-.011719.050781-.074219.011719-.023437.046875-.066406.011718-.019532c.015626-.023437.03125-.042968.046876-.066406l.011718-.019531.046875-.066407.015625-.023437.042969-.066406.015625-.023438c.011719-.019531.027344-.042969.039062-.0625l.019532-.023437.042968-.066406.011719-.019532c.015625-.023437.03125-.042968.042969-.066406l.019531-.023438.039063-.0625.019531-.027343.039063-.0625.015624-.023438c.015626-.019531.03125-.046875.046876-.066406l.011718-.019531c.015625-.023438.03125-.046875.046875-.070313l.011719-.019531c.015625-.023438.03125-.046875.046875-.070312l.007813-.015626.050781-.074218.007812-.011719c.015625-.023437.03125-.050781.050781-.074219l.007813-.015625c.015625-.023437.035156-.050781.050781-.074219l.007813-.015624c.191406-.292969.382812-.589844.574219-.886719l.003906-.003907.054687-.085937.003907-.003906.050781-.082031.007812-.011719.050781-.078125.003907-.007813.050781-.082031.007812-.007812c.015626-.027344.035157-.054688.050782-.082032l.007812-.007812c.015625-.027344.03125-.054688.046875-.078125l.007813-.011719.050781-.078125.007813-.011719c.015624-.027344.03125-.050781.046874-.078125l.007813-.011719.046875-.074218.011719-.015625.046875-.074219.007812-.015625.050782-.078125.003906-.007812c.019531-.027344.035156-.054688.054687-.082032l.003907-.007812.050781-.085938.003906-.003906.054687-.085938c.226563-.359374.449219-.722656.667969-1.082031l.003907-.003906.050781-.085937.003906-.003907c.019531-.027343.035156-.054687.050781-.085937l.007813-.007813c.015625-.027343.03125-.054687.050781-.082031v-.003906c.019531-.03125.035156-.058594.054688-.085938v-.003906l.054687-.085938v-.003906c.019531-.03125.035156-.058594.054687-.085937l.003907-.007813.050781-.085937.003906-.003907.050782-.082031.003906-.007812.050781-.085938v-.003906c.019531-.03125.035156-.058594.054687-.089844.347657-.574219.6875-1.148437 1.023438-1.726562l.050781-.089844v-.003906l.105469-.179688h.003906l.050782-.089843v-.003907c11.601562-20.152343 17.640624-43.027343 17.507812-66.28125 0-.410156-.003906-.820312-.011719-1.226562 0-.035157 0-.070313 0-.101563v-.007812c0-.03125 0-.0625 0-.09375l-.003906-.023438v-.171875l-.003906-.039062v-.164063l-.003907-.039062v-.160156l-.003906-.042969v-.160157l-.003906-.046874v-.101563l-.003906-.046875v-.152344l-.003906-.050781v-.09375c0-.019531-.003907-.039063-.003907-.0625v-.03125c0-.023437 0-.050781 0-.070313l-.003906-.027343v-.082031l-.007813-.289063c-.761718-25.117187-21.328124-45.085937-46.453124-45.101563zm0 0" fill="#99cefa"/><path d="m472.855469 38.511719c-51.34375-51.347657-134.597657-51.347657-185.945313 0l-124.195312 124.191406 185.949218 185.949219 124.191407-124.191406c51.582031-51.117188 52.375-133.945313 1.261719-185.527344-.28125-.28125-.5625-.5625-1.261719-.421875zm0 0" fill="#ffd432"/><path d="m501.972656 180.183594c2.628906-6.753906 4.691406-13.714844 6.167969-20.8125.414063-1.90625.78125-3.816406 1.105469-5.734375 1.230468-6.9375 1.902344-13.964844 2.011718-21.011719.003907-.46875.085938-.933594.085938-1.398438-.007812-4.324218-.804688-8.597656-1.238281-12.902343-4.925781-21.007813-23.660157-35.863281-45.238281-35.878907-.464844 0-.9375.007813-1.40625.023438-25.664063.761719-45.847657 22.183594-45.082032 47.847656.347656 10.621094-3.730468 20.90625-11.265625 28.402344l-124.191406 124.191406 65.742187 65.742188 112.066407-112.066406.117187-.113282.851563-.855468 2.910156-2.910157.023437-.019531.949219-.953125 2.742188-2.742187c.40625-.40625.785156-.785157 1.136719-1.136719l.363281-.359375c.039062-.042969.082031-.085938.121093-.125l.105469-.105469c.3125-.3125.601563-.601563.867188-.867187l.265625-.261719.21875-.222657 1.351562-1.351562.105469-.101562c12.402344-12.378907 22.195313-27.117188 28.800781-43.347657.125-.300781.191406-.625.3125-.929687zm0 0" fill="#f4ac03"/><path d="m56.125 315.78125 73.71875-73.71875c12.839844-12.835938 33.652344-12.835938 46.488281 0 12.835938 12.835938 12.835938 33.652344 0 46.488281l-73.71875 73.71875c-12.835937 12.835938-33.648437 12.835938-46.488281 0-12.835938-12.839843-12.835938-33.652343 0-46.488281zm0 0" fill="#e1ebfc"/><path d="m242.074219 129.832031 73.71875-73.714843c12.835937-12.839844 33.648437-12.839844 46.488281 0 12.835938 12.835937 12.835938 33.648437 0 46.484374l-73.71875 73.71875c-12.839844 12.835938-33.652344 12.835938-46.488281 0-12.835938-12.835937-12.835938-33.648437 0-46.488281zm0 0" fill="#ffef7d"/><path d="m288.5625 83.347656 27.230469-27.230468c12.835937-12.839844 33.648437-12.839844 46.488281 0 12.835938 12.835937 12.835938 33.648437 0 46.484374l-27.234375 27.230469c-12.835937 12.839844-33.648437 12.839844-46.484375 0-12.839844-12.835937-12.839844-33.648437 0-46.484375zm0 0" fill="#fff8c6"/><path d="m255.691406 438.488281c0-113.800781-92.253906-206.054687-206.050781-206.054687h-3.96875c-25.21875 0-45.6601562 20.445312-45.6601562 45.660156v3.96875c0 113.796875 92.2539062 206.050781 206.0507812 206.050781h3.96875c25.214844 0 45.660156-20.441406 45.660156-45.660156zm0 0" fill="#6ec030"/><path d="m34.878906 348.652344h69.730469c6.417969 0 11.621094 5.203125 11.621094 11.621094 0 6.417968-5.203125 11.621093-11.621094 11.621093h-69.730469c-6.421875 0-11.625-5.203125-11.625-11.621093 0-6.417969 5.203125-11.621094 11.625-11.621094zm0 0" fill="#4da900"/><path d="m81.363281 395.140625h69.730469c6.417969 0 11.621094 5.203125 11.621094 11.621094s-5.203125 11.621093-11.621094 11.621093h-69.730469c-6.417969 0-11.621093-5.203124-11.621093-11.621093s5.203124-11.621094 11.621093-11.621094zm0 0" fill="#4da900"/><path d="m227.632812 460.054688-176.320312-176.320313c-6.414062-6.421875-16.820312-6.429687-23.242188-.015625-6.425781 6.414062-6.429687 16.820312-.019531 23.242188.007813.007812.011719.011718.019531.019531l176.320313 176.320312c6.417969 6.417969 16.824219 6.417969 23.242187 0v-.003906c6.417969-6.417969 6.417969-16.824219 0-23.242187zm0 0" fill="#4da900"/><path d="m165.738281 301.179688c-6.417969 0-11.621093 5.203124-11.625 11.621093 0 3.242188 1.355469 6.335938 3.734375 8.535157 9.957032 9.203124 18.710938 19.625 26.054688 31.023437 3.476562 5.394531 10.667968 6.953125 16.0625 3.476563 5.378906-3.464844 6.945312-10.621094 3.507812-16.015626-2.789062-4.335937-5.75-8.539062-8.886718-12.609374-.109376-.144532-.222657-.289063-.332032-.429688l-.007812-.011719c-.027344-.035156-.050782-.066406-.078125-.101562l-.007813-.007813c-.078125-.101562-.152344-.199218-.234375-.304687l-.019531-.027344c-.023438-.023437-.050781-.0625-.074219-.089844l-.015625-.023437c-.074218-.09375-.148437-.1875-.222656-.28125l-.03125-.039063-.0625-.082031-.03125-.042969-.210938-.265625-.035156-.042968-.058594-.074219-.042968-.054688-.054688-.066406c-.027344-.035156-.050781-.066406-.078125-.101563-.019531-.023437-.039062-.050781-.058593-.070312-.015626-.023438-.03125-.046875-.050782-.066406l-.050781-.0625c-.015625-.023438-.035156-.050782-.054687-.074219-.015626-.015625-.027344-.03125-.042969-.050781-.03125-.039063-.0625-.078125-.09375-.121094l-.03125-.035156c-.023438-.03125-.046875-.0625-.074219-.09375l-.035156-.046875c-.023438-.027344-.042969-.054688-.066406-.082031l-.039063-.046876c-.03125-.039062-.066406-.082031-.097656-.121093l-.019531-.027344-.082032-.101563-.035156-.039062c-.023438-.035156-.050781-.066406-.078125-.101562l-.023437-.027344c-.070313-.089844-.140626-.175782-.210938-.261719l-.023438-.027344c-.027343-.035156-.058593-.074219-.085937-.109375l-.023437-.027344c-.070313-.085937-.140626-.175781-.210938-.261718l-.023438-.023438c-.027343-.039062-.058593-.078125-.089843-.117187l-.015625-.015625c-.074219-.089844-.148438-.183594-.222656-.273438l-.003907-.003906c-.035156-.042969-.070312-.089844-.105469-.132812l-.011718-.011719c-5.328125-6.496094-11.097656-12.625-17.265625-18.335938l-.007813-.007812-.125-.117188-.003906-.003906c-2.144531-1.984375-4.960938-3.089844-7.886719-3.085937zm-119.238281-45.5h-.390625l-.066406.003906h-.085938l-.066406.003906h-.089844l-.066406.003906h-.085937l-.066407.003906h-.011719l-.066406.003907h-.007812l-.066406.003906h-.078126l-.007812.003906h-.066406l-.011719.003907h-.066406l-.007813.003906-.066406.003906h-.011719l-.066406.003906h-.007813l-.066406.003906h-.011718l-.066407.003907h-.007812l-.066407.003906-.011718.003906-.0625.003907h-.011719l-.066406.003906h-.007813l-.066406.007812h-.007812l-.066407.003906h-.007812l-.066407.007813h-.007812l-.0625.003906h-.015625l-.0625.007813h-.011719l-.0625.007812h-.011718l-.0625.003906-.015626.003907-.058593.003906h-.015625l-.0625.007813h-.011719l-.0625.007812h-.011719l-.0625.007812h-.011718l-.058594.007813h-.019532l-.058593.007813h-.015625l-.058594.007812-.015625.003906-.058594.003906-.015625.003907-.058594.007812h-.015624l-.058594.007813h-.015625l-.058594.007812-.015625.003906-.058594.007813h-.015625l-.058593.007813-.015626.003906-.058593.007812h-.015625l-.058594.007813-.015625.003906-.058594.007813-.015625.003906-.054687.007812h-.019531l-.054688.011719h-.015625l-.054687.007813-.019532.003906-.054687.007812-.019531.003906-.050782.007813-.023437.003906-.050781.007813-.019532.003906-.050781.007812-.023437.003907-.050782.007812-.019531.003907-.050781.007812-.023438.003906-.050781.007813-.019531.003906-.050782.007813-.023437.003906-.050781.011718-.070313.011719-.027343.003907-.070313.011718-.050781.011719-.09375.015625-.050782.011719-.023437.003906-.050781.007813-.023438.007812-.070312.011719-.050782.011719-.070312.011718-.023438.007813-.050781.007812-.023437.007813-.046875.007812-.027344.007813-.042969.007812-.027344.007813-.039062.007812-.03125.007813-.042969.007812-.027343.007813-.042969.007812-.027344.007813-.042969.007812-.03125.007813-.039062.007812-.03125.007813-.039063.007812-.03125.007813-.039062.011718-.03125.007813-.039063.007813-.03125.007812-.039062.007812-.03125.007813-.039063.011719-.027343.003906-.046876.011719-.023437.007812-.042969.011719-.027344.003906-.042968.011719-.027344.007813-.046875.011718-.023437.007813-.046876.011719-.023437.003906-.046875.011718-.023438.007813-.046874.011719-.023438.007812-.046875.011719-.019531.007813-.050782.011718-.019531.007813-.050781.011719-.019531.007812-.046875.011719-.023438.007812-.046875.011719-.023437.007812-.050782.011719-.019531.007813-.046875.011718-.023437.007813-.046875.011719-.070313.023437-.019531.003907-.050781.015624-.015625.007813-.054688.015625-.015625.003906-.050781.015625-.015625.003907-.054687.015624-.011719.007813-.054688.015625-.011719.003906-.054687.015625-.015625.007813-.050781.015625-.015625.003906-.054688.019531-.011718.003906-.058594.015626-.007813.003906-.058593.019531-.007813.003906-.128906.042969-.007813.003906-.070312.023438-.054688.019531-.082031.027344-.054687.019531-.007813.003906-.0625.019532-.003906.003906-.0625.023437h-.007813l-.058594.023438h-.007812l-.058594.023437-.007812.003906-.0625.023438-.066406.023438h-.003907l-.0625.023437-.003906.003906c-.238281.089844-.476563.183594-.714844.28125-5.921875 2.472657-8.722656 9.277344-6.253906 15.199219s9.265625 8.722656 15.1875 6.261719c.144531-.046875.296875-.066407.453125-.058594h3.128906c19.425782-.027344 38.6875 3.515625 56.832032 10.453125 5.992187 2.296875 12.714843-.699219 15.011718-6.695312 2.292969-5.992188-.703125-12.710938-6.695312-15.007813-7.351563-2.8125-14.878906-5.144531-22.53125-6.980469l-.136719-.03125h-.003906c-.367188-.089844-.726563-.175781-1.097657-.261718h-.007812l-.125-.027344-.140625-.035156h-.007813l-.140624-.035157c-.273438-.0625-.542969-.121093-.820313-.183593l-.011719-.003907-.125-.027343-.011718-.003907-.125-.027343-.015626-.003907-.125-.027343-.007812-.003907c-.046875-.007812-.082031-.015625-.128906-.027343l-.011719-.003907-.132813-.027343c-.234374-.050782-.457031-.101563-.6875-.152344l-.019531-.003906-.121093-.023438-.015626-.003906-.117187-.027344-.027344-.003906-.109375-.023438-.023437-.007812-.136719-.027344-.125-.027344h-.007812c-.234376-.050781-.457032-.097656-.6875-.148437l-.019532-.003907c-.035156-.003906-.082031-.015624-.117187-.023437l-.023438-.003906c-.035156-.007813-.074219-.015625-.109375-.023438l-.03125-.003906c-.035156-.007813-.070312-.015625-.105468-.023437l-.03125-.007813-.105469-.019531-.03125-.007813-.117188-.023437-.015625-.003906c-.046875-.007813-.085937-.015626-.132812-.027344-.140625-.027344-.277344-.054688-.417969-.085938h-.007813l-.125-.023437-.027343-.007813-.109375-.019531-.03125-.007813-.105469-.019531-.03125-.007812-.109375-.019531-.027344-.007813c-.035156-.007813-.074218-.015625-.109375-.019531l-.027343-.007813-.113282-.019531-.023437-.007812-.121094-.023438h-.011719c-.140625-.027344-.277344-.054688-.417968-.082031h-.003907l-.128906-.027344-.027344-.003906-.109375-.019531-.027344-.007813-.109374-.019531-.035157-.003906c-.035156-.007813-.066406-.015626-.101562-.023438l-.03125-.003906-.109375-.019532-.027344-.007812-.113281-.019531-.023438-.003907-.121093-.023437-.015626-.003906c-.140624-.027344-.273437-.050781-.414062-.078125h-.015625l-.121094-.023438-.027343-.003906c-.035157-.007812-.070313-.015625-.105469-.019531l-.039063-.007813-.09375-.019531-.140625-.023437-.039062-.007813-.097657-.015625-.039062-.007812-.101562-.019532-.035157-.003906-.105469-.019531-.03125-.007813c-.140624-.023437-.269531-.046875-.414062-.070312l-.019531-.003906c-.039063-.007813-.074219-.015626-.113281-.023438l-.035157-.003906-.101562-.019532-.035157-.003906-.101562-.019531-.039062-.007813-.097657-.015624-.039062-.007813c-.035157-.003906-.066407-.011719-.101563-.015625l-.035156-.007812-.105469-.015626-.03125-.007812-.113281-.019531-.023438-.003907c-.140624-.023437-.277343-.046874-.417968-.070312h-.007813l-.125-.023438-.03125-.003906-.105469-.015625-.039062-.007812-.234375-.039063-.042969-.007812-.097656-.015625-.039062-.007813-.097657-.015625-.039062-.003906-.105469-.019531-.027344-.003906-.132812-.019532-.003906-.003906-.277344-.042969-.03125-.003906-.105469-.019531-.042969-.003906-.09375-.015626-.042968-.007812-.140626-.023438-.089843-.011718-.046875-.007813-.089844-.015625-.046875-.007812-.089844-.011719-.050781-.007813-.085938-.015624-.050781-.007813-.097656-.015625-.035156-.003906-.128907-.019532-.023437-.003906c-.042969-.007812-.082031-.011718-.121094-.019531l-.035156-.003906-.101563-.015625-.042968-.007813-.097656-.015625-.042969-.003906-.089844-.015625-.050781-.007813-.089844-.011718-.046875-.007813-.089844-.011719-.046875-.007812-.089844-.015625-.050781-.007813-.136719-.019531c-.03125-.003906-.058593-.007812-.089843-.011719l-.042969-.007812c-.097656-.011719-.179688-.027344-.277344-.039062l-.03125-.003907-.101562-.015625-.054688-.007812-.085937-.011719-.046875-.007813-.085938-.011718-.054687-.007813-.085938-.011719-.050781-.007812-.082031-.011719-.058594-.007812-.085937-.011719-.046876-.007812-.09375-.011719-.046874-.007813-.105469-.011718-.027344-.003907-.125-.019531h-.015625c-.046875-.007812-.089844-.011719-.136719-.019531l-.03125-.003907-.105469-.015624-.050781-.007813-.085937-.011719-.054688-.007812-.078125-.007813-.0625-.007812-.078125-.011719-.058594-.007812-.078124-.011719-.058594-.007813-.078125-.007812-.058594-.007813-.078125-.011719-.0625-.007812-.078125-.007812-.054687-.007813-.09375-.011719-.046876-.007812-.132812-.015625-.039062-.003907-.097657-.015624-.054687-.003907-.085938-.011719-.050781-.007812-.085937-.007812-.191407-.027344-.082031-.007813-.058594-.007812-.078125-.011719-.058593-.007812-.082032-.007813-.054687-.007813c-.03125-.003906-.058594-.007812-.089844-.011718l-.046875-.003906c-.035156-.003907-.066406-.007813-.101562-.011719l-.039063-.007813-.132813-.015625-.039062-.003906-.097656-.011719-.054688-.003906-.085937-.011719-.054688-.007812-.078125-.007813-.066406-.007812-.074219-.007813-.0625-.007812-.074219-.007813-.0625-.007812-.078124-.011719-.058594-.003906-.074219-.011719-.0625-.003906-.078125-.011719-.058594-.007813-.089844-.007812-.046874-.003906-.140626-.015625-.03125-.003907-.101562-.011718-.054688-.007813-.085937-.007812-.054687-.007813-.082032-.007812-.058594-.007813-.078124-.007812-.0625-.007813-.074219-.007812-.066407-.007813-.070312-.003906-.066406-.007813-.070313-.007812-.066406-.007812-.074219-.007813-.0625-.007813-.089844-.007812-.046874-.003906c-.050782-.007813-.089844-.011719-.136719-.015625l-.035157-.003907c-.03125-.003906-.074218-.007812-.101562-.011718l-.058594-.003906-.078125-.007813-.070312-.007813-.066407-.007812-.070312-.007812-.066406-.007813-.070313-.003906-.066406-.007813-.074219-.007812-.066406-.007813-.070312-.007812-.066407-.003907-.066406-.007812-.078125-.007812-.0625-.003907-.078125-.007812-.058594-.007813-.085937-.007812-.109375-.007813-.078125-.007812-.058594-.007813-.078125-.007812-.058594-.003906-.082031-.007813-.058594-.007813-.082031-.003906-.054687-.007812-.082032-.007813-.058594-.003906-.078124-.007813-.0625-.003906-.078126-.007812-.0625-.007813-.074218-.007812-.0625-.003907-.078125-.007812-.0625-.003906-.132813-.011719-.035156-.003906-.101562-.007813-.054688-.007812-.085938-.007813-.058593-.003906-.078125-.007813-.066406-.003906-.074219-.007812-.0625-.003906-.074219-.007813-.066406-.003906-.074219-.007813-.066406-.003906-.070313-.007812-.066406-.003907-.078125-.007812-.058594-.003907c-.03125-.003906-.066406-.003906-.097656-.007812l-.039063-.003906-.140624-.011719h-.011719l-.125-.007813-.140625-.011718-.054688-.003906-.085937-.007813-.054688-.003906-.082031-.007813-.0625-.003906-.074219-.003906-.066406-.007813-.074219-.003906-.0625-.003906-.078125-.007813-.0625-.003906-.078125-.007812-.058594-.003907-.082031-.003906-.0625-.003906c-.027343-.003907-.078125-.007813-.105469-.007813l-.035156-.003906c-.050781-.003906-.082031-.003906-.132812-.007812l-.042969-.003907-.097656-.007812-.054688-.003907-.082031-.003906-.058594-.007812-.082031-.003906-.0625-.003907-.140625-.007812-.070312-.007813-.066407-.003906-.210937-.011719-.070313-.007812-.066406-.003907-.140625-.007812c-.039062-.003906-.078125-.003906-.121094-.007812l-.082031-.003907-.070313-.003906-.066406-.003906-.074218-.007813-.066407-.003906-.140625-.007812-.066406-.003907-.070312-.003906-.074219-.003906-.066407-.003907-.210937-.011718-.066406-.003906-.210938-.011719-.066406-.003907c-.046875-.003906-.097656-.007812-.144531-.007812l-.058594-.003906-.140625-.007813-.074219-.003906-.0625-.003906-.078125-.003907-.0625-.003906-.074219-.003906-.066406-.003906-.210937-.011719-.066407-.003906-.074218-.003907h-.066406l-.074219-.003906-.070313-.003906-.066406-.003906-.089844-.003906-.046875-.003907-.140625-.007812h-.042968c-.03125-.003907-.066407-.003907-.097657-.003907l-.042969-.003906-.097656-.003906-.054687-.003906-.082031-.003906h-.0625l-.078126-.003907-.066406-.003906-.070312-.003906-.066406-.003907h-.078126l-.0625-.003906-.082031-.003906h-.054687l-.089844-.003906-.050781-.003906-.128907-.003907-.011718-.003906c-.046875 0-.089844 0-.140625-.003906h-.042969l-.097656-.003907-.054688-.003906-.082031-.003906h-.066406l-.074219-.003906-.0625-.003906h-.078125l-.066406-.003907-.078125-.003906h-.054688l-.085937-.003906-.058594-.003907h-.085937l-.054688-.003906-.089844-.003906h-.050781l-.097656-.003906h-.042969l-.136719-.003906-.046875-.003907h-.097656l-.050781-.003906h-.085938l-.0625-.003906h-.082031l-.058594-.003907-.082031-.003906h-.0625l-.078125-.003906h-.058594l-.082031-.003906h-.144531l-.058594-.003906h-.082031l-.058594-.003907h-.097656l-.039063-.003906c-.050781 0-.097656 0-.144531-.003906h-.144531l-.027344-.003907h-.109375l-.050781-.003906h-.144532l-.085937-.003906h-.140625l-.0625-.003906h-.140625l-.082031-.003906h-.148438l-.046875-.003907c-.039062 0-.074219 0-.113281 0h-.03125c-.046875-.003906-.089844-.003906-.140625-.003906h-.140625l-.046875-.003906h-.148437l-.085938-.003907h-.207031l-.078125-.003906h-.289063l-.050781-.003906h-.285156l-.140625-.003906h-.023438c-.042969 0-.074219 0-.121093 0h-.195313l-.085937-.003906h-.765626c-.03125 0-.074218 0-.105468 0zm0 0" fill="#9fe27c"/><path d="m19.667969 244.511719c-3.421875-.003907-6.671875 1.503906-8.878907 4.117187-5.328124 6.292969-8.847656 13.917969-10.179687 22.054688v.003906l-.007813.058594-.003906.007812-.007812.058594c-.023438.144531-.046875.292969-.070313.4375v.003906l-.007812.058594v.007812l-.007813.058594-.003906.007813c-.015625.121093-.035156.242187-.050781.367187l-.003907.007813-.003906.050781-.003906.015625-.007812.046875v.023438l-.007813.046874-.003906.015626-.003907.050781-.003906.015625c0 .015625-.003906.03125-.007812.050781v.003906c-.007813.078125-.019532.160157-.03125.242188v.011719l-.007813.046874v.019532l-.007812.046875v.019531l-.007813.042969v.023437l-.007812.046875v.015625l-.007813.050782v.019531c-.007812.054687-.015625.113281-.019531.167969l-.003906.003906-.003906.046875-.003907.023437-.003906.042969v.023437l-.007813.042969v.023438l-.003906.042969-.003906.023437-.003906.042969-.003906.027344-.003907.042968-.003906.015625c-.003906.058594-.011719.117188-.015625.175781v.003907l-.007812.050781v.015625l-.003907.046875-.003906.019531-.003906.046875-.003907.023438-.003906.042968v.023438l-.003906.042969-.003906.027343-.003906.039063-.003907.03125v.035156l-.011719.105469v.027344l-.003906.042968-.003906.027344-.003906.039063-.003906.027343-.003907.039063v.03125l-.003906.035156-.003906.03125-.003907.035157v.035156l-.003906.035156-.003906.03125v.039062l-.003906.027344-.007813.097656v.003907l-.003906.042969v.027343l-.007813.070313v.035156l-.003906.035156-.003906.03125v.039063l-.003906.03125v.035156l-.003906.03125-.003907.042969v.027344l-.007812.085937v.050781l-.003907.03125-.0039058.035156v.035157l-.0039062.035156v.035156l-.0039062.035157-.0039063.03125v.070312l-.0078125.070312v.035157l-.0039062.03125v.070312l-.0039063.066407-.0039063.027343v.042969l-.0039062.027344v.042968l-.0039062.027344v.070313l-.0039063.042969v.027343l-.0039063.042969v.070312l-.0039062.027344v.050782l-.0039062.015624v.070313.019531l-.0039063.050782v.023437l-.0039063.046875v.136719l-.0039062.03125v.109375l-.0039062.03125v.070312l-.0039063.066406v.097657l-.0039063.042969v.101562l-.0039062.039062v.140626l-.0039062.027343v.234375l-.0039063.046875v4.417969c0 113.796875 92.2499995 206.050781 206.0507815 206.050781h4.347656l.039062-.003906h.238282l.027344-.003906h.214843l.039063-.003907h.171875l.039062-.003906h.09375l.039063-.003906h.136718l.03125-.003906h.109376l.03125-.003906h.0625c.050781-.003907.101562-.003907.152343-.007813h.066407l.023437-.003906h.070313l.042968-.003907h.023438l.046875-.003906h.066406l.015625-.003906c.101562-.003906.207031-.007812.308594-.015625h.0625l.007812-.003906h.058594l.007812-.003907h.0625c1.847657-.109374 3.691407-.328124 5.515626-.65625 6.324218-1.101562 10.558593-7.117187 9.457031-13.441406-1.097657-6.324218-7.117188-10.558594-13.441407-9.460937-.050781.011719-.101562.019531-.152343.03125-1.335938.238281-2.6875.359375-4.046875.359375h-3.964844c-100.800781 0-182.808594-82.007813-182.808594-182.808594v-3.96875c-.027344-5.292969 1.847656-10.425781 5.28125-14.457031 4.144532-4.898438 3.53125-12.234375-1.371094-16.375-2.09375-1.773438-4.75-2.75-7.496093-2.75zm0 0" fill="#4da900"/><path d="m274.121094 483.300781-222.808594-222.808593c-6.417969-6.417969-16.824219-6.417969-23.242188 0-6.417968 6.417968-6.417968 16.824218 0 23.242187l18.429688 18.429687 204.375 204.378907c6.421875 6.417969 16.828125 6.417969 23.246094 0 5.527344-6.226563 4.730468-16.308594 0-23.242188zm0 0" fill="#8ccd5b"/><path d="m81.363281 255.679688c6.417969 0 11.621094 5.203124 11.621094 11.621093v46.488281c0 6.417969-5.203125 11.621094-11.621094 11.621094s-11.621093-5.203125-11.621093-11.621094v-46.488281c0-6.417969 5.203124-11.621093 11.621093-11.621093zm0 0" fill="#8ccd5b"/><path d="m197.582031 348.652344c6.417969 0 11.621094 5.203125 11.621094 11.621094v69.730468c0 6.417969-5.203125 11.621094-11.621094 11.621094s-11.621093-5.203125-11.621093-11.621094v-69.730468c0-6.417969 5.203124-11.621094 11.621093-11.621094zm0 0" fill="#8ccd5b"/><path d="m127.851562 278.921875c6.417969 0 11.621094 5.203125 11.621094 11.621094v69.730469c0 6.417968-5.203125 11.621093-11.621094 11.621093-6.417968 0-11.621093-5.203125-11.621093-11.621093v-69.730469c0-6.417969 5.203125-11.621094 11.621093-11.621094zm0 0" fill="#8ccd5b"/><path d="m34.878906 325.410156h69.730469c6.417969 0 11.621094 5.203125 11.621094 11.621094s-5.203125 11.621094-11.621094 11.621094h-69.730469c-6.421875 0-11.625-5.203125-11.625-11.621094s5.203125-11.621094 11.625-11.621094zm0 0" fill="#8ccd5b"/><path d="m81.363281 371.894531h69.730469c6.417969 0 11.621094 5.203125 11.621094 11.621094 0 6.421875-5.203125 11.625-11.621094 11.625h-69.730469c-6.417969 0-11.621093-5.207031-11.621093-11.625s5.203124-11.621094 11.621093-11.621094zm0 0" fill="#8ccd5b"/><path d="m499.746094 395.140625h-11.621094c-12.835938 0-23.242188-10.40625-23.242188-23.246094v-11.621093c0-6.417969-5.203124-11.621094-11.625-11.621094-6.417968 0-11.621093 5.203125-11.621093 11.621094v11.621093c0 12.835938-10.40625 23.246094-23.242188 23.246094h-11.621093c-6.417969 0-11.621094 5.203125-11.621094 11.621094s5.203125 11.621093 11.621094 11.621093h11.621093c12.835938 0 23.242188 10.40625 23.242188 23.242188v11.621094c0 6.421875 5.203125 11.625 11.621093 11.625 6.421876 0 11.625-5.207032 11.625-11.625v-11.621094c-.003906-12.835938 10.402344-23.242188 23.242188-23.242188h11.621094c6.417968.007813 11.628906-5.183593 11.640625-11.601562.011719-6.421875-5.183594-11.632812-11.601563-11.640625-.015625 0-.027344 0-.039062 0zm0 0" fill="#caefb7"/><path d="m104.609375 116.21875h-11.625c-12.835937 0-23.242187-10.40625-23.242187-23.246094v-11.621094c.007812-6.417968-5.191407-11.625-11.609376-11.632812-6.417968-.007812-11.628906 5.191406-11.632812 11.609375v.023437 11.621094c0 12.839844-10.40625 23.246094-23.246094 23.246094h-11.621094c-6.417968-.007812-11.6249995 5.191406-11.632812 11.609375s5.191406 11.625 11.609375 11.632813h.023437 11.621094c12.839844 0 23.246094 10.40625 23.246094 23.242187v11.625c-.007812 6.417969 5.191406 11.625 11.609375 11.632813 6.417969.007812 11.625-5.191407 11.632813-11.609376 0-.007812 0-.015624 0-.027343v-11.621094c0-12.835937 10.40625-23.242187 23.242187-23.242187h.003906 11.621094c6.417969.007812 11.625-5.191407 11.632813-11.609376.007812-6.417968-5.191407-11.628906-11.609376-11.632812-.007812 0-.015624 0-.023437 0zm0 0" fill="#e1ebfc"/><path d="m337.042969 46.488281h-11.621094c-12.839844 0-23.246094-10.40625-23.246094-23.246093v-11.621094c0-6.417969-5.203125-11.621094-11.621093-11.621094-6.417969 0-11.621094 5.203125-11.621094 11.621094v11.621094c0 12.839843-10.40625 23.246093-23.242188 23.246093h-11.625c-6.417968 0-11.621094 5.203125-11.621094 11.621094s5.203126 11.621094 11.621094 11.621094h11.625c12.835938 0 23.242188 10.40625 23.242188 23.242187v11.625c0 6.417969 5.203125 11.621094 11.621094 11.621094 6.417968 0 11.621093-5.203125 11.621093-11.621094v-11.625c0-12.835937 10.40625-23.242187 23.242188-23.242187h.003906 11.621094c6.417969-.007813 11.613281-5.214844 11.609375-11.632813-.007813-6.410156-5.199219-11.605468-11.609375-11.609375zm0 0" fill="#fff8c6"/></svg>