<?xml version="1.0" encoding="iso-8859-1"?>
<!-- Generator: Adobe Illustrator 19.0.0, SVG Export Plug-In . SVG Version: 6.00 Build 0)  -->
<svg version="1.1" id="Capa_1" xmlns="http://www.w3.org/2000/svg" xmlns:xlink="http://www.w3.org/1999/xlink" x="0px" y="0px"
	 viewBox="0 0 512.001 512.001" style="enable-background:new 0 0 512.001 512.001;" xml:space="preserve">
<g>
	<g>
		<path d="M341.579,197.242v-41.054h9.425c6.755,0,12.25-5.495,12.25-12.25V87.129c0-6.754-5.495-12.249-12.25-12.249h-19.009
			l4.699-35.84c2.142-16.337-8.92-31.327-25.183-34.128C293.008,1.727,274.341,0.074,256.031,0c-0.02,0-0.043,0-0.063,0
			c-18.311,0.074-36.978,1.727-55.48,4.912c-16.264,2.801-27.324,17.791-25.183,34.128l4.699,35.84h-19.006
			c-6.755,0-12.25,5.495-12.25,12.249v56.81c0,6.754,5.495,12.25,12.25,12.25h9.425v41.045
			c-49.903,29.417-83.459,83.728-83.459,145.73c0,93.208,75.83,169.037,169.037,169.037c38.087,0,74.048-12.368,103.994-35.766
			c3.266-2.551,3.844-7.265,1.293-10.53c-2.553-3.265-7.268-3.843-10.531-1.292c-27.282,21.317-60.048,32.584-94.756,32.584
			c-84.933,0-154.032-69.099-154.032-154.033c0-57.182,31.326-107.178,77.712-133.75h152.594
			c46.406,26.567,77.759,76.554,77.759,133.75c0,32.161-9.808,62.968-28.362,89.092c-2.399,3.378-1.605,8.061,1.772,10.461
			c3.377,2.4,8.062,1.605,10.46-1.771c20.369-28.676,31.135-62.489,31.135-97.781C425.038,280.963,391.479,226.66,341.579,197.242z
			 M203.034,19.699c17.674-3.043,35.493-4.622,52.966-4.694c17.472,0.072,35.29,1.651,52.964,4.694
			c8.297,1.429,13.942,9.068,12.852,17.39L316.86,74.88H195.138l-4.954-37.791C189.092,28.766,194.736,21.128,203.034,19.699z
			 M326.574,194.208H185.427v-38.019h141.148V194.208z M177.925,141.184L177.925,141.184l-14.172,0.001V89.884h184.496v51.3h-14.172
			H177.925z"/>
	</g>
</g>
<g>
	<g>
		<path d="M368.451,306.369c-2.718-8.355-10.417-13.94-19.194-13.94c-0.054,0-0.107,0-0.161,0l-84.812,0.653
			c-4.144,0.032-7.476,3.417-7.444,7.56c0.032,4.143,3.412,7.429,7.56,7.444l84.813-0.653c0.014,0,0.027,0,0.041,0
			c2.254,0,4.23,1.432,4.928,3.576c3.343,10.28,5.038,21.03,5.038,31.951c0,27.859-10.93,53.971-30.776,73.526
			c-19.842,19.552-46.109,30.079-74.003,29.683c-26.862-0.396-52.202-11.164-71.352-30.322s-29.912-44.502-30.299-71.362
			c-0.156-10.881,1.367-21.613,4.528-31.896c0.677-2.205,2.659-3.698,4.931-3.715l55.471-0.427c4.144-0.032,7.476-3.417,7.444-7.56
			c-0.032-4.124-3.385-7.444-7.501-7.444c-0.02,0-0.039,0-0.059,0l-55.471,0.427c-8.849,0.069-16.549,5.82-19.158,14.311
			c-3.622,11.783-5.368,24.07-5.19,36.521c0.443,30.787,12.764,59.821,34.69,81.754c21.926,21.934,50.957,34.264,81.743,34.717
			c0.6,0.009,1.197,0.013,1.797,0.013c31.26,0,60.66-12.037,82.96-34.01c22.731-22.398,35.248-52.306,35.248-84.214
			C374.225,330.462,372.282,318.15,368.451,306.369z"/>
	</g>
</g>
<g>
</g>
<g>
</g>
<g>
</g>
<g>
</g>
<g>
</g>
<g>
</g>
<g>
</g>
<g>
</g>
<g>
</g>
<g>
</g>
<g>
</g>
<g>
</g>
<g>
</g>
<g>
</g>
<g>
</g>
</svg>
