<?xml version="1.0" encoding="iso-8859-1"?>
<!-- Generator: Adobe Illustrator 19.0.0, SVG Export Plug-In . SVG Version: 6.00 Build 0)  -->
<svg version="1.1" id="Capa_1" xmlns="http://www.w3.org/2000/svg" xmlns:xlink="http://www.w3.org/1999/xlink" x="0px" y="0px"
	 viewBox="0 0 512 512" style="enable-background:new 0 0 512 512;" xml:space="preserve">
<g>
	<g>
		<path d="M186,452c-5.52,0-10,4.48-10,10c0,5.52,4.48,10,10,10s10-4.48,10-10C196,456.48,191.52,452,186,452z"/>
	</g>
</g>
<g>
	<g>
		<path d="M448.78,380.858c-4.784-11.564-11.7-21.919-20.559-30.779l-44.44-44.439c-0.392-0.392-0.783-0.783-1.199-1.208
			c-40.674-41.388-65.345-102.328-66.525-163.818C327.912,133.714,336,120.911,336,106c0-12.153-5.484-23.441-14.68-30.955
			l8.214-37.942C334.136,18.218,319.839,0,300.38,0h-88.76c-19.44,0-33.761,18.198-29.154,37.104l8.219,37.963
			C181.107,82.912,176,94.185,176,106c0,14.753,8.035,27.657,19.952,34.591c-0.989,50.576-18.242,101.986-47.691,141.731
			c-6.183,8.356-12.926,16.201-20.042,23.317l-44.44,44.44C65.865,367.993,56,391.813,56,417.15
			c0,25.326,9.864,49.145,27.781,67.073C101.705,502.136,125.523,512,150.85,512h210.3c52.3,0,94.85-42.55,94.85-94.85
			C456,404.636,453.57,392.425,448.78,380.858z M211.62,20h88.76c6.506,0,11.286,6.104,9.708,12.428
			c-0.025,0.102-0.049,0.204-0.071,0.306L302.69,66.58C300.483,66.205,298.245,66,296,66h-80c-2.245,0-4.483,0.205-6.69,0.58
			l-7.327-33.846c-0.022-0.103-0.046-0.205-0.071-0.306C200.338,26.117,205.102,20,211.62,20z M216,86h80c11.088,0,20,8.999,20,20
			c0,11.045-8.954,20-20,20h-80c-11.028,0-20-8.972-20-20C196,94.898,205.019,86,216,86z M215.803,146H216h80h0.193
			c2.295,59.603,24.969,118.388,62.1,161.522c-36.322,12.107-80.095,8.046-106.771-11.01
			c-21.881-15.625-48.062-23.033-74.342-21.483C200.319,236.745,214.029,191.197,215.803,146z M361.15,492h-210.3
			c-19.986,0-38.784-7.786-52.927-21.919C83.786,455.935,76,437.136,76,417.15c0-19.995,7.785-38.792,21.921-52.929l44.44-44.44
			c6.907-6.907,13.485-14.432,19.593-22.401c27.02-6.333,55.267-0.784,77.943,15.407c20.063,14.331,47.243,21.67,75.188,21.67
			c19.737-0.001,39.852-3.675,58.105-11.123l40.888,40.887c6.99,6.99,12.447,15.159,16.223,24.285
			c3.782,9.132,5.699,18.769,5.699,28.644C436,458.422,402.423,492,361.15,492z"/>
	</g>
</g>
<g>
	<g>
		<path d="M150.85,452c-19.216,0-34.85-15.634-34.85-34.85c0-9.309,3.624-18.064,10.205-24.653
			c3.903-3.907,3.899-10.239-0.008-14.142c-3.909-3.903-10.239-3.899-14.143,0.008C101.702,388.728,96,402.503,96,417.15
			c0,30.245,24.605,54.85,54.85,54.85c5.522,0,10-4.477,10-10S156.372,452,150.85,452z"/>
	</g>
</g>
<g>
	<g>
		<path d="M206,332c-16.542,0-30,13.458-30,30s13.458,30,30,30s30-13.458,30-30S222.542,332,206,332z M206,372
			c-5.514,0-10-4.486-10-10c0-5.514,4.486-10,10-10c5.514,0,10,4.486,10,10C216,367.514,211.514,372,206,372z"/>
	</g>
</g>
<g>
	<g>
		<path d="M336,372c-22.056,0-40,17.944-40,40c0,22.056,17.944,40,40,40c22.056,0,40-17.944,40-40C376,389.944,358.056,372,336,372z
			 M336,432c-11.028,0-20-8.972-20-20s8.972-20,20-20s20,8.972,20,20S347.028,432,336,432z"/>
	</g>
</g>
<g>
</g>
<g>
</g>
<g>
</g>
<g>
</g>
<g>
</g>
<g>
</g>
<g>
</g>
<g>
</g>
<g>
</g>
<g>
</g>
<g>
</g>
<g>
</g>
<g>
</g>
<g>
</g>
<g>
</g>
</svg>
