<?xml version="1.0" encoding="iso-8859-1"?>
<!-- Generator: Adobe Illustrator 19.0.0, SVG Export Plug-In . SVG Version: 6.00 Build 0)  -->
<svg version="1.1" id="Capa_1" xmlns="http://www.w3.org/2000/svg" xmlns:xlink="http://www.w3.org/1999/xlink" x="0px" y="0px"
	 viewBox="0 0 511.989 511.989" style="enable-background:new 0 0 511.989 511.989;" xml:space="preserve">
<g>
	<g>
		<g>
			<path d="M508.173,59.119c-5.636-12.09-13.446-23.041-23.04-32.307C464.294,5.939,436.16-8.149,422.762,5.248l-37.146,37.146
				c-4.755-4.724-10.576-8.236-16.973-10.24c-19.439-5.649-29.952-0.41-35.311,4.966c-9.847,9.89-9.062,25.993-1.911,43.759
				c-1.562,7.253-12.211,45.372-65.033,63.369c-59.135-25.174-126.957-18.99-180.564,16.464
				C32.219,196.166-0.017,256.157,0.004,320.427c0,0.751,0.102,1.493,0.111,2.244c-0.026,0.521-0.111,1.033-0.111,1.562
				c0.01,1.573,0.149,3.143,0.418,4.693c4.382,101.479,87.303,181.845,188.87,183.049c101.567,1.205,186.37-77.171,193.159-178.518
				c1.917-5.588,2.063-11.632,0.418-17.306c-0.505-24.28-5.649-48.24-15.155-70.588c17.98-52.736,55.569-63.352,63.3-64.998
				c7.612,3.318,15.782,5.167,24.081,5.453c7.305,0.332,14.429-2.335,19.721-7.381c5.367-5.376,10.59-15.863,4.966-35.311
				c-2.004-6.397-5.516-12.218-10.24-16.973l37.146-37.146C510.485,85.436,515.639,76.544,508.173,59.119z M68.168,197.086
				c51.365-51.222,129.03-65.392,195.174-35.61c9.716,18.493,22.27,35.348,37.205,49.954c14.611,14.921,31.462,27.468,49.946,37.188
				c6.283,13.918,10.699,28.606,13.133,43.682c-33.741-23.774-104.209-36.335-171.622-36.335c-68.096,0-139.281,12.8-172.604,37.06
				C25.044,256.675,42.127,223.069,68.168,197.086z M314.884,443.802c-45.25,45.25-111.644,62.09-172.991,43.877
				C80.546,469.466,34.097,419.125,20.868,356.514c33.929,23.552,104.047,35.985,171.136,35.985
				c66.287,0,135.501-12.143,169.873-35.149C354.849,390.086,338.533,420.101,314.884,443.802z M365.615,329.617
				c-9.976,22.63-80.87,45.815-173.611,45.815c-98.321,0-172.049-26.061-174.686-49.886c-0.017-0.7-0.085-1.391-0.102-2.091
				c1.562-23.97,75.733-50.424,174.788-50.424c93.372,0,164.693,23.509,173.867,46.276
				C365.871,322.757,365.785,326.193,365.615,329.617z M354.76,231.672h-0.034c-15.502-8.727-29.692-19.604-42.146-32.307
				c-12.71-12.454-23.59-26.647-32.316-42.155c26.985-9.89,49.128-29.789,61.833-55.569c8.639,13.734,18.808,26.445,30.31,37.888
				c11.437,11.501,24.135,21.674,37.854,30.327C384.511,182.572,364.638,204.705,354.76,231.672z M462.75,166.571h-0.034
				c-7.979,7.962-42.428-3.285-78.242-39.108s-47.087-70.255-39.108-78.234c2.944-2.953,9.677-3.191,18.517-0.64
				c3.986,1.314,7.585,3.591,10.479,6.63c0.296,0.225,0.607,0.431,0.93,0.614c-1.776,7.648-0.756,15.678,2.876,22.639
				c5.634,12.088,13.444,23.037,23.04,32.299c9.259,9.6,20.208,17.41,32.299,23.04c5.06,2.349,10.544,3.647,16.119,3.814
				c2.205-0.004,4.398-0.34,6.502-0.998c0.186,0.334,0.397,0.653,0.631,0.956c3.04,2.9,5.317,6.505,6.63,10.496
				C465.924,156.869,465.694,163.618,462.75,166.571z M451.537,120.286c-2.406,1.647-18.398-1.707-38.272-21.555
				c-19.874-19.849-23.211-35.925-21.581-38.281l28.407-28.407c0.393,1.092,0.7,2.133,1.203,3.302
				c5.632,12.089,13.442,23.038,23.04,32.299c9.264,9.597,20.216,17.407,32.307,23.04c1.143,0.486,2.202,0.853,3.268,1.237
				L451.537,120.286z M494.656,77.133v0.026c-2.56,1.638-18.5-1.8-38.263-21.564c-19.763-19.763-23.194-35.84-21.589-38.229
				c0.557-0.29,1.184-0.417,1.809-0.367c5.205,0,19.43,4.881,36.463,21.914C492.889,58.676,496.268,74.676,494.656,77.133z"/>
			<path d="M84.655,406.298c-0.19-0.542-0.448-1.058-0.768-1.536c-0.315-0.447-0.657-0.875-1.024-1.28
				c-2.065-1.976-4.957-2.834-7.765-2.304c-0.535,0.093-1.052,0.266-1.536,0.512c-0.546,0.188-1.065,0.446-1.544,0.768
				c-0.443,0.317-0.867,0.659-1.271,1.024c-1.568,1.64-2.452,3.816-2.475,6.084c0.015,0.572,0.072,1.143,0.171,1.707
				c0.093,0.535,0.266,1.052,0.512,1.536c0.187,0.544,0.445,1.06,0.768,1.536c0.315,0.447,0.657,0.875,1.024,1.28
				c0.404,0.365,0.829,0.707,1.271,1.024c0.479,0.322,0.999,0.58,1.544,0.768c0.484,0.247,1.001,0.419,1.536,0.512
				c0.564,0.099,1.134,0.156,1.707,0.171c2.259-0.033,4.422-0.917,6.059-2.475c0.367-0.405,0.709-0.833,1.024-1.28
				c0.32-0.478,0.578-0.994,0.768-1.536c0.248-0.482,0.418-1.001,0.503-1.536c0.106-0.563,0.166-1.134,0.179-1.707
				c-0.018-0.573-0.077-1.143-0.179-1.707C85.075,407.315,84.905,406.788,84.655,406.298z"/>
			<path d="M136.358,416.393c-0.085-0.535-0.255-1.054-0.503-1.536c-0.19-0.542-0.448-1.058-0.768-1.536
				c-0.315-0.447-0.657-0.875-1.024-1.28c-2.065-1.976-4.957-2.834-7.765-2.304c-0.535,0.093-1.052,0.266-1.536,0.512
				c-0.546,0.188-1.065,0.446-1.544,0.768c-0.443,0.317-0.867,0.659-1.271,1.024c-1.562,1.634-2.446,3.799-2.475,6.059
				c0.015,0.572,0.072,1.143,0.171,1.707c0.093,0.535,0.266,1.052,0.512,1.536c0.186,0.544,0.445,1.06,0.768,1.536
				c0.315,0.447,0.657,0.875,1.024,1.28c0.404,0.365,0.829,0.707,1.271,1.024c0.479,0.322,0.999,0.58,1.544,0.768
				c0.484,0.247,1.001,0.419,1.536,0.512c0.564,0.099,1.134,0.156,1.707,0.171c2.259-0.033,4.422-0.917,6.059-2.475
				c0.367-0.405,0.709-0.833,1.024-1.28c0.32-0.478,0.578-0.994,0.768-1.536c0.248-0.482,0.418-1.001,0.503-1.536
				c0.106-0.563,0.166-1.134,0.179-1.707C136.52,417.527,136.46,416.957,136.358,416.393z"/>
			<path d="M152.921,457.498c-0.19-0.542-0.448-1.058-0.768-1.536c-0.315-0.447-0.657-0.875-1.024-1.28
				c-2.065-1.976-4.957-2.834-7.765-2.304c-0.535,0.093-1.052,0.266-1.536,0.512c-0.546,0.188-1.065,0.446-1.545,0.768
				c-0.443,0.317-0.867,0.659-1.271,1.024c-1.568,1.64-2.452,3.815-2.475,6.084c0.015,0.572,0.072,1.143,0.171,1.707
				c0.093,0.535,0.265,1.052,0.512,1.536c0.187,0.544,0.445,1.06,0.768,1.536c0.315,0.447,0.657,0.875,1.024,1.28
				c0.404,0.365,0.829,0.707,1.271,1.024c0.479,0.322,0.999,0.58,1.545,0.768c0.484,0.247,1.001,0.419,1.536,0.512
				c0.564,0.099,1.134,0.156,1.707,0.171c2.259-0.033,4.422-0.917,6.059-2.475c0.367-0.405,0.709-0.833,1.024-1.28
				c0.32-0.478,0.578-0.994,0.768-1.536c0.248-0.482,0.418-1.001,0.503-1.536c0.106-0.563,0.166-1.134,0.179-1.707
				c-0.018-0.573-0.078-1.143-0.179-1.707C153.342,458.515,153.172,457.988,152.921,457.498z"/>
			<path d="M186.031,409.737c-0.535,0.093-1.052,0.266-1.536,0.512c-0.546,0.188-1.065,0.446-1.545,0.768
				c-0.443,0.317-0.867,0.659-1.271,1.024c-1.562,1.634-2.446,3.799-2.475,6.059c0.015,0.572,0.072,1.143,0.171,1.707
				c0.093,0.535,0.266,1.052,0.512,1.536c0.186,0.544,0.445,1.06,0.768,1.536c0.315,0.447,0.657,0.875,1.024,1.28
				c0.404,0.365,0.829,0.707,1.271,1.024c0.479,0.322,0.999,0.58,1.545,0.768c0.484,0.247,1.001,0.419,1.536,0.512
				c0.564,0.099,1.134,0.156,1.707,0.171c2.259-0.033,4.422-0.917,6.059-2.475c0.367-0.405,0.709-0.833,1.024-1.28
				c0.32-0.478,0.578-0.994,0.768-1.536c0.248-0.482,0.418-1.001,0.503-1.536c0.106-0.563,0.166-1.134,0.179-1.707
				c-0.018-0.573-0.077-1.143-0.179-1.707c-0.085-0.535-0.255-1.054-0.503-1.536c-0.19-0.542-0.448-1.058-0.768-1.536
				c-0.315-0.447-0.657-0.875-1.024-1.28C191.731,410.065,188.839,409.207,186.031,409.737z"/>
			<path d="M194.052,464.495c-0.544,0.186-1.06,0.445-1.536,0.768c-0.447,0.315-0.875,0.657-1.28,1.024
				c-1.561,1.634-2.446,3.799-2.475,6.059c0.015,0.572,0.072,1.143,0.171,1.707c0.093,0.535,0.266,1.052,0.512,1.536
				c0.187,0.544,0.445,1.06,0.768,1.536c0.588,0.929,1.375,1.716,2.304,2.304c0.476,0.323,0.992,0.582,1.536,0.768
				c0.484,0.247,1.001,0.419,1.536,0.512c0.564,0.099,1.134,0.156,1.707,0.171c2.259-0.033,4.422-0.917,6.059-2.475
				c0.367-0.405,0.709-0.833,1.024-1.28c0.323-0.476,0.581-0.992,0.768-1.536c0.247-0.484,0.419-1.001,0.512-1.536
				c0.099-0.564,0.156-1.134,0.171-1.707c-0.019-0.572-0.076-1.142-0.171-1.707c-0.093-0.535-0.265-1.052-0.512-1.536
				c-0.187-0.544-0.445-1.06-0.768-1.536c-0.315-0.447-0.657-0.875-1.024-1.28c-2.064-1.977-4.957-2.835-7.765-2.304
				C195.053,464.076,194.536,464.249,194.052,464.495z"/>
			<path d="M222.553,438.409c0.187,0.544,0.445,1.06,0.768,1.536c0.315,0.447,0.657,0.875,1.024,1.28
				c0.404,0.365,0.829,0.707,1.271,1.024c0.479,0.322,0.999,0.58,1.545,0.768c0.484,0.247,1.001,0.419,1.536,0.512
				c0.564,0.099,1.134,0.156,1.707,0.171c2.259-0.033,4.422-0.917,6.059-2.475c0.367-0.405,0.709-0.833,1.024-1.28
				c0.32-0.478,0.578-0.994,0.768-1.536c0.248-0.482,0.418-1.001,0.503-1.536c0.106-0.563,0.166-1.134,0.179-1.707
				c-0.018-0.573-0.078-1.143-0.179-1.707c-0.085-0.535-0.255-1.054-0.503-1.536c-0.19-0.542-0.448-1.058-0.768-1.536
				c-0.315-0.447-0.657-0.875-1.024-1.28c-2.065-1.976-4.957-2.834-7.765-2.304c-0.535,0.093-1.052,0.266-1.536,0.512
				c-0.546,0.188-1.065,0.446-1.545,0.768c-0.443,0.317-0.867,0.659-1.271,1.024c-1.562,1.634-2.446,3.799-2.475,6.059
				c0.015,0.572,0.072,1.143,0.171,1.707C222.134,437.408,222.307,437.925,222.553,438.409z"/>
			<path d="M256.687,421.342c0.187,0.544,0.445,1.06,0.768,1.536c0.315,0.447,0.657,0.875,1.024,1.28
				c0.404,0.365,0.829,0.707,1.271,1.024c0.479,0.322,0.999,0.58,1.545,0.768c0.483,0.247,1.001,0.419,1.536,0.512
				c0.564,0.099,1.134,0.156,1.707,0.171c2.263-0.04,4.426-0.933,6.059-2.5c0.367-0.405,0.709-0.833,1.024-1.28
				c0.32-0.478,0.578-0.994,0.768-1.536c0.248-0.482,0.418-1.001,0.503-1.536c0.105-0.555,0.165-1.117,0.179-1.681
				c-0.018-0.573-0.078-1.143-0.179-1.707c-0.085-0.535-0.255-1.054-0.503-1.536c-0.19-0.542-0.448-1.058-0.768-1.536
				c-0.315-0.447-0.657-0.875-1.024-1.28c-2.065-1.976-4.957-2.834-7.765-2.304c-0.535,0.093-1.052,0.266-1.536,0.512
				c-0.546,0.188-1.065,0.446-1.545,0.768c-0.443,0.317-0.867,0.659-1.271,1.024c-1.561,1.634-2.446,3.799-2.475,6.059
				c0.015,0.572,0.072,1.143,0.171,1.707C256.268,420.341,256.44,420.859,256.687,421.342z"/>
			<path d="M269.828,444.357c-0.546,0.188-1.065,0.446-1.545,0.768c-0.443,0.317-0.867,0.659-1.271,1.024
				c-1.568,1.64-2.452,3.815-2.475,6.084c0.015,0.572,0.072,1.143,0.171,1.707c0.093,0.535,0.265,1.052,0.512,1.536
				c0.187,0.544,0.445,1.06,0.768,1.536c0.315,0.447,0.657,0.875,1.024,1.28c0.404,0.365,0.829,0.707,1.271,1.024
				c0.479,0.322,0.999,0.58,1.545,0.768c0.484,0.246,1.001,0.419,1.536,0.512c0.564,0.099,1.134,0.156,1.707,0.171
				c2.259-0.033,4.422-0.917,6.059-2.475c0.367-0.405,0.709-0.833,1.024-1.28c0.32-0.478,0.578-0.994,0.768-1.536
				c0.248-0.482,0.418-1.001,0.503-1.536c0.106-0.563,0.166-1.134,0.179-1.707c-0.018-0.573-0.078-1.143-0.179-1.707
				c-0.083-0.544-0.253-1.071-0.503-1.562c-0.19-0.542-0.448-1.058-0.768-1.536c-0.315-0.447-0.657-0.875-1.024-1.28
				c-2.065-1.976-4.957-2.834-7.765-2.304C270.829,443.937,270.312,444.11,269.828,444.357z"/>
			<path d="M299.353,412.809c0.186,0.544,0.445,1.06,0.768,1.536c0.315,0.447,0.657,0.875,1.024,1.28
				c0.404,0.365,0.829,0.707,1.271,1.024c0.479,0.322,0.999,0.58,1.545,0.768c0.484,0.247,1.001,0.419,1.536,0.512
				c0.564,0.099,1.134,0.156,1.707,0.171c2.259-0.033,4.422-0.917,6.059-2.475c0.367-0.405,0.709-0.833,1.024-1.28
				c0.32-0.478,0.578-0.994,0.768-1.536c0.248-0.482,0.418-1.001,0.503-1.536c0.106-0.563,0.166-1.134,0.179-1.707
				c-0.018-0.573-0.078-1.143-0.179-1.707c-0.085-0.535-0.255-1.054-0.503-1.536c-0.19-0.542-0.448-1.058-0.768-1.536
				c-0.315-0.447-0.657-0.875-1.024-1.28c-2.065-1.976-4.957-2.834-7.765-2.304c-0.535,0.093-1.052,0.266-1.536,0.512
				c-0.546,0.188-1.065,0.446-1.545,0.768c-0.443,0.317-0.867,0.659-1.271,1.024c-1.561,1.634-2.446,3.799-2.475,6.059
				c0.015,0.572,0.072,1.143,0.171,1.707C298.934,411.808,299.107,412.325,299.353,412.809z"/>
		</g>
	</g>
</g>
<g>
</g>
<g>
</g>
<g>
</g>
<g>
</g>
<g>
</g>
<g>
</g>
<g>
</g>
<g>
</g>
<g>
</g>
<g>
</g>
<g>
</g>
<g>
</g>
<g>
</g>
<g>
</g>
<g>
</g>
</svg>
