<svg height="512pt" viewBox="-6 0 512 512.00217" width="512pt" xmlns="http://www.w3.org/2000/svg"><path d="m208.695312 512.003906-208.695312-208.699218 256.671875-259.898438h199.652344v208.328125zm0 0" fill="#e7eced"/><path d="m404.242188 130.210938c0 19.175781-15.546876 34.71875-34.722657 34.71875s-34.722656-15.542969-34.722656-34.71875c0-19.179688 15.546875-34.722657 34.722656-34.722657s34.722657 15.542969 34.722657 34.722657zm0 0" fill="#afb6bb"/><path d="m369.519531 138.890625c-2.222656 0-4.445312-.851563-6.136719-2.542969-3.394531-3.394531-3.394531-8.882812 0-12.277344l121.527344-121.523437c3.394532-3.394531 8.878906-3.394531 12.273438 0 3.394531 3.394531 3.394531 8.878906 0 12.273437l-121.527344 121.527344c-1.699219 1.691406-3.921875 2.542969-6.136719 2.542969zm0 0" fill="#be7c6d"/><path d="m145.449219 373.113281-1.542969-43.410156c-2.550781-71.847656 53.609375-132.160156 125.457031-134.710937l43.414063-1.546876 1.542968 43.410157c2.550782 71.851562-53.609374 132.160156-125.457031 134.714843zm0 0" fill="#61b872"/><g fill="#3d6f44"><path d="m255.449219 299.703125c-2.117188 0-4.242188-.773437-5.917969-2.324219l-21.625-20.140625c-3.507812-3.261719-3.707031-8.757812-.433594-12.273437 3.28125-3.507813 8.757813-3.699219 12.273438-.433594l21.625 20.136719c3.503906 3.265625 3.707031 8.761719.433594 12.277343-1.710938 1.828126-4.039063 2.757813-6.355469 2.757813zm0 0"/><path d="m213.738281 302.804688c-2.117187 0-4.242187-.773438-5.917969-2.328126l-19.636718-18.28125c-3.503906-3.265624-3.707032-8.757812-.433594-12.273437 3.273438-3.507813 8.769531-3.699219 12.273438-.433594l19.636718 18.28125c3.507813 3.261719 3.707032 8.757813.433594 12.273438-1.71875 1.832031-4.035156 2.761719-6.355469 2.761719zm0 0"/><path d="m213.617188 344.625c-2.117188 0-4.242188-.773438-5.917969-2.324219l-19.964844-18.59375c-3.507813-3.265625-3.707031-8.761719-.433594-12.277343 3.28125-3.503907 8.757813-3.6875 12.273438-.433594l19.964843 18.59375c3.507813 3.265625 3.707032 8.757812.433594 12.273437-1.710937 1.832031-4.027344 2.761719-6.355468 2.761719zm0 0"/><path d="m259.554688 241.066406c-3.628907-3.105468-9.113282-2.691406-12.238282.9375l-102.28125 119.28125.414063 11.828125 12.691406-.449219 102.351563-119.355468c3.125-3.640625 2.699218-9.125-.9375-12.242188zm0 0"/></g></svg>