<?xml version="1.0" encoding="iso-8859-1"?>
<!-- Generator: Adobe Illustrator 17.1.0, SVG Export Plug-In . SVG Version: 6.00 Build 0)  -->
<!DOCTYPE svg PUBLIC "-//W3C//DTD SVG 1.1//EN" "http://www.w3.org/Graphics/SVG/1.1/DTD/svg11.dtd">
<svg version="1.1" id="Capa_1" xmlns="http://www.w3.org/2000/svg" xmlns:xlink="http://www.w3.org/1999/xlink" x="0px" y="0px"
	 viewBox="0 0 447 447" style="enable-background:new 0 0 447 447;" xml:space="preserve">
<g>
	<path d="M208.685,145.987c-25.457,25.457-25.457,66.88,0,92.337c5.695,5.694,12.285,10.231,19.586,13.483
		c5.046,2.247,10.957-0.021,13.204-5.066c2.247-5.045-0.021-10.956-5.066-13.204c-5.056-2.252-9.625-5.399-13.581-9.355
		c-17.659-17.66-17.659-46.394,0-64.053c17.66-17.66,46.394-17.659,64.053-0.001c17.659,17.66,17.659,46.394,0.001,64.053
		c-5.509,5.509-12.358,9.518-19.806,11.596c-5.32,1.484-8.429,7-6.945,12.319c1.233,4.421,5.251,7.315,9.627,7.315
		c0.889,0,1.794-0.12,2.692-0.37c10.755-3.001,20.636-8.781,28.574-16.719c25.457-25.457,25.457-66.88,0-92.337
		C275.565,120.53,234.143,120.53,208.685,145.987z"/>
	<path d="M444.071,76.257L370.752,2.938c-3.905-3.904-10.237-3.904-14.143,0c-3.905,3.905-3.905,10.237,0,14.143l1.056,1.056
		l-54.41,54.41c-14.406-12.115-29.478-18.246-44.912-18.246c-18.087,0-35.676,8.418-52.278,25.021L12.202,273.186
		C4.333,281.055,0,291.516,0,302.644c0,11.128,4.333,21.59,12.202,29.459l102.705,102.705c8.122,8.122,18.79,12.182,29.458,12.182
		c10.668,0,21.337-4.061,29.458-12.182l193.864-193.864c16.603-16.603,25.021-34.192,25.021-52.279
		c0-15.434-6.131-30.506-18.246-44.912l54.41-54.41l1.056,1.056c3.905,3.905,10.237,3.905,14.143,0
		C447.977,86.495,447.977,80.162,444.071,76.257z M353.545,226.802L159.682,420.665c-8.444,8.445-22.186,8.446-30.632,0
		L26.344,317.96c-8.446-8.445-8.446-22.186,0-30.632L220.208,93.464c12.715-12.715,25.546-19.163,38.136-19.163
		c12.59,0,25.421,6.448,38.137,19.164l57.064,57.064c12.715,12.715,19.163,25.546,19.163,38.136
		C372.708,201.255,366.261,214.086,353.545,226.802z M360.616,129.316l-42.922-42.922l54.114-54.115l42.923,42.923L360.616,129.316z
		"/>
</g>
<g>
</g>
<g>
</g>
<g>
</g>
<g>
</g>
<g>
</g>
<g>
</g>
<g>
</g>
<g>
</g>
<g>
</g>
<g>
</g>
<g>
</g>
<g>
</g>
<g>
</g>
<g>
</g>
<g>
</g>
</svg>
