<?xml version="1.0" encoding="iso-8859-1"?>
<!-- Generator: Adobe Illustrator 19.0.0, SVG Export Plug-In . SVG Version: 6.00 Build 0)  -->
<svg version="1.1" id="Capa_1" xmlns="http://www.w3.org/2000/svg" xmlns:xlink="http://www.w3.org/1999/xlink" x="0px" y="0px"
	 viewBox="0 0 480.003 480.003" style="enable-background:new 0 0 480.003 480.003;" xml:space="preserve">
<g>
	<g>
		<path d="M480.003,184.001c-0.273-51.246-37.65-94.741-88.272-102.72c-1.388-18.723-16.954-33.223-35.728-33.28
			c-3.328,0-6.639,0.477-9.832,1.416c-12.333-23.371-41.278-32.319-64.649-19.985c-18.363,9.69-28.38,30.118-24.799,50.569h-152.72
			c-57.41,0.066-103.934,46.59-104,104v112c0.008,19.389,5.478,38.384,15.784,54.808c-20.589,19.952-21.106,52.816-1.155,73.406
			c9.8,10.113,23.288,15.811,37.371,15.786h180.664c3.935,23.08,23.923,39.971,47.336,40h128
			c39.765-0.022,71.982-32.275,71.961-72.039c-0.01-18.771-7.351-36.795-20.457-50.233c13.298-17.833,20.486-39.482,20.496-61.728
			V184.001z M304.003,40.001c13.904,0.021,26.183,9.07,30.32,22.344c1.341,4.21,5.841,6.535,10.051,5.194
			c0.56-0.178,1.098-0.418,1.605-0.714c3.027-1.824,6.49-2.799,10.024-2.824c11.046,0.008,19.994,8.968,19.986,20.014
			c-0.008,11.046-8.968,19.994-20.014,19.986c-6.637-0.005-12.839-3.301-16.556-8.8c-1.355-1.997-3.539-3.276-5.944-3.48
			c-0.227-0.012-0.453-0.012-0.68,0c-2.178,0.002-4.261,0.892-5.768,2.464c-6.003,6.292-14.328,9.841-23.024,9.816
			c-17.673,0-32-14.327-32-32S286.329,40.001,304.003,40.001z M446.191,449.005c-10.37,9.656-24.019,15.015-38.188,14.996h-128
			c-17.673,0-32-14.327-32-32c0-4.418-3.582-8-8-8h-188c-19.882-0.027-35.978-16.166-35.952-36.048
			c0.012-8.909,3.327-17.497,9.304-24.104c19.694,22.938,48.416,36.14,78.648,36.152h272c27.346,0.011,53.588-10.787,73.008-30.04
			C470.059,392.567,468.797,427.956,446.191,449.005z M464.003,296.001c-0.057,48.577-39.423,87.943-88,88h-272
			c-48.577-0.057-87.943-39.423-88-88v-112c0.057-48.577,39.423-87.943,88-88h158.496c8.563,14.831,24.379,23.977,41.504,24
			c10.086,0.029,19.919-3.163,28.064-9.112c14.805,13.204,37.512,11.906,50.716-2.899c2.855-3.201,5.113-6.887,6.668-10.885
			c42.773,6.807,74.326,43.585,74.552,86.896V296.001z"/>
	</g>
</g>
<g>
	<g>
		<rect x="128.003" y="136.001" width="16" height="16"/>
	</g>
</g>
<g>
	<g>
		<path d="M56.003,192.001v32h16v-32c0.026-22.08,17.92-39.974,40-40v-16C81.089,136.037,56.038,161.088,56.003,192.001z"/>
	</g>
</g>
<g>
	<g>
		<path d="M32.003,0.001c-17.673,0-32,14.327-32,32s14.327,32,32,32s32-14.327,32-32S49.676,0.001,32.003,0.001z M32.003,48.001
			c-8.837,0-16-7.163-16-16s7.163-16,16-16s16,7.163,16,16S40.839,48.001,32.003,48.001z"/>
	</g>
</g>
<g>
	<g>
		<path d="M104.003,16.001c-13.255,0-24,10.745-24,24s10.745,24,24,24s24-10.745,24-24S117.257,16.001,104.003,16.001z
			 M104.003,48.001c-4.418,0-8-3.582-8-8s3.582-8,8-8s8,3.582,8,8S108.421,48.001,104.003,48.001z"/>
	</g>
</g>
<g>
	<g>
		<rect x="336.003" y="328.001" width="16" height="16"/>
	</g>
</g>
<g>
	<g>
		<path d="M408.003,256.001v32c-0.026,22.08-17.92,39.974-40,40v16c30.913-0.035,55.965-25.087,56-56v-32H408.003z"/>
	</g>
</g>
<g>
</g>
<g>
</g>
<g>
</g>
<g>
</g>
<g>
</g>
<g>
</g>
<g>
</g>
<g>
</g>
<g>
</g>
<g>
</g>
<g>
</g>
<g>
</g>
<g>
</g>
<g>
</g>
<g>
</g>
</svg>
