<?xml version="1.0" encoding="iso-8859-1"?>
<!-- Generator: Adobe Illustrator 18.0.0, SVG Export Plug-In . SVG Version: 6.00 Build 0)  -->
<!DOCTYPE svg PUBLIC "-//W3C//DTD SVG 1.1//EN" "http://www.w3.org/Graphics/SVG/1.1/DTD/svg11.dtd">
<svg version="1.1" id="Capa_1" xmlns="http://www.w3.org/2000/svg" xmlns:xlink="http://www.w3.org/1999/xlink" x="0px" y="0px"
	 viewBox="0 0 56 56" style="enable-background:new 0 0 56 56;" xml:space="preserve">
<g>
	<path d="M55.224,25.076l-4.902-13.222C49.688,10.147,48.049,9,46.241,9H40.5c0-4.963-4.037-9-9-9s-9,4.037-9,9v5
		c0,3.859-3.141,7-7,7c-1.933,0-3.686-0.788-4.954-2.06c2.225-0.294,3.954-2.183,3.954-4.487V6.547C14.5,4.04,12.46,2,9.953,2H5.047
		C2.54,2,0.5,4.04,0.5,6.547v7.906C0.5,16.96,2.54,19,5.047,19h2.975c1.616,2.41,4.365,4,7.478,4c4.963,0,9-4.037,9-9V9
		c0-3.859,3.141-7,7-7s7,3.141,7,7h-6.741c-1.808,0-3.447,1.147-4.08,2.854l-4.902,13.221c-0.184,0.494-0.276,1.012-0.276,1.54
		v24.99c0,2.423,1.954,4.395,4.356,4.395h24.287c2.402,0,4.356-1.972,4.356-4.395v-24.99C55.5,26.087,55.407,25.569,55.224,25.076z
		 M5.047,17C3.643,17,2.5,15.857,2.5,14.453V6.547C2.5,5.143,3.643,4,5.047,4h4.906C11.357,4,12.5,5.143,12.5,6.547v7.906
		C12.5,15.857,11.357,17,9.953,17H9.185C8.75,16.089,8.5,15.074,8.5,14h-2c0,1.053,0.191,2.06,0.525,3H5.047z M40.5,16.278
		c0.595,0.347,1,0.985,1,1.722c0,1.103-0.897,2-2,2s-2-0.897-2-2c0-0.737,0.405-1.375,1-1.722V18h2V16.278z M51.144,54H26.856
		c-1.3,0-2.356-1.074-2.356-2.395v-5.191l1.293,1.293l1.414-1.414L24.5,43.586v-7.172l1.293,1.293l1.414-1.414L24.5,33.586v-6.971
		c0-0.289,0.051-0.573,0.151-0.844l4.902-13.222c0.344-0.927,1.23-1.55,2.205-1.55H38.5v3.142c-1.72,0.447-3,1.999-3,3.858
		c0,2.206,1.794,4,4,4s4-1.794,4-4c0-1.859-1.28-3.411-3-3.858V11h5.741c0.975,0,1.861,0.623,2.205,1.55l4.902,13.223
		c0.101,0.27,0.151,0.554,0.151,0.843v7.971l-1-1l-2.707,2.707l1.414,1.414l1.293-1.293l1,1v7.172l-1-1l-2.707,2.707l1.414,1.414
		l1.293-1.293l1,1v4.191C53.5,52.926,52.443,54,51.144,54z"/>
	<polygon points="25.793,51.293 27.207,52.707 28.5,51.414 29.793,52.707 31.207,51.293 28.5,48.586 	"/>
	<polygon points="32.793,51.293 34.207,52.707 35.5,51.414 36.793,52.707 38.207,51.293 35.5,48.586 	"/>
	<polygon points="39.793,51.293 41.207,52.707 42.5,51.414 43.793,52.707 45.207,51.293 42.5,48.586 	"/>
	<polygon points="46.793,51.293 48.207,52.707 49.5,51.414 50.793,52.707 52.207,51.293 49.5,48.586 	"/>
	<polygon points="28.5,41.414 29.793,42.707 31.207,41.293 28.5,38.586 25.793,41.293 27.207,42.707 	"/>
	<polygon points="34.207,42.707 35.5,41.414 36.793,42.707 38.207,41.293 35.5,38.586 32.793,41.293 	"/>
	<polygon points="41.207,42.707 42.5,41.414 43.793,42.707 45.207,41.293 42.5,38.586 39.793,41.293 	"/>
	<polygon points="48.207,42.707 49.5,41.414 50.793,42.707 52.207,41.293 49.5,38.586 46.793,41.293 	"/>
	<polygon points="34.207,46.293 31.5,43.586 28.793,46.293 30.207,47.707 31.5,46.414 32.793,47.707 	"/>
	<polygon points="41.207,46.293 38.5,43.586 35.793,46.293 37.207,47.707 38.5,46.414 39.793,47.707 	"/>
	<polygon points="48.207,46.293 45.5,43.586 42.793,46.293 44.207,47.707 45.5,46.414 46.793,47.707 	"/>
	<polygon points="31.5,36.414 32.793,37.707 34.207,36.293 31.5,33.586 28.793,36.293 30.207,37.707 	"/>
	<polygon points="38.5,36.414 39.793,37.707 41.207,36.293 38.5,33.586 35.793,36.293 37.207,37.707 	"/>
	<polygon points="45.5,36.414 46.793,37.707 48.207,36.293 45.5,33.586 42.793,36.293 44.207,37.707 	"/>
</g>
<g>
</g>
<g>
</g>
<g>
</g>
<g>
</g>
<g>
</g>
<g>
</g>
<g>
</g>
<g>
</g>
<g>
</g>
<g>
</g>
<g>
</g>
<g>
</g>
<g>
</g>
<g>
</g>
<g>
</g>
</svg>
