<?xml version='1.0' encoding='iso-8859-1'?>
<svg version="1.1" xmlns="http://www.w3.org/2000/svg" viewBox="0 0 470 470" xmlns:xlink="http://www.w3.org/1999/xlink" enable-background="new 0 0 470 470">
  <g>
    <path d="M425.285,350.536L392.5,337.422V75c0-4.143-3.357-7.5-7.5-7.5s-7.5,3.357-7.5,7.5v262.422l-32.785,13.114   c-2.848,1.14-4.715,3.897-4.715,6.964v75c0,4.143,3.357,7.5,7.5,7.5h75c4.143,0,7.5-3.357,7.5-7.5v-75   C430,354.434,428.133,351.676,425.285,350.536z M415,425h-60v-62.422l30-12l30,12V425z"/>
    <path d="m377.5,45c0,4.143 3.357,7.5 7.5,7.5s7.5-3.357 7.5-7.5c0-24.813-20.187-45-45-45s-45,20.187-45,45v40c0,16.542-13.458,30-30,30s-30-13.458-30-30v-40c0-24.813-20.187-45-45-45s-45,20.187-45,45v100h-62.5c-2.433,0-4.714,1.18-6.12,3.165l-42.5,60c-0.897,1.268-1.38,2.782-1.38,4.335v30c0,4.143 3.357,7.5 7.5,7.5s7.5-3.357 7.5-7.5v-27.613l38.878-54.887h58.622v15h-2.5c-4.143,0-7.5,3.357-7.5,7.5s3.357,7.5 7.5,7.5h20c4.143,0 7.5-3.357 7.5-7.5s-3.357-7.5-7.5-7.5h-2.5v-15h58.622l38.878,54.887v240.113h-210v-182.5c0-4.143-3.357-7.5-7.5-7.5s-7.5,3.357-7.5,7.5v190c0,4.143 3.357,7.5 7.5,7.5h225c4.143,0 7.5-3.357 7.5-7.5v-250c0-1.553-0.482-3.067-1.38-4.335l-42.5-60c-1.406-1.985-3.687-3.165-6.12-3.165h-62.5v-100c0-16.542 13.458-30 30-30s30,13.458 30,30v40c0,24.813 20.187,45 45,45s45-20.187 45-45v-40c0-16.542 13.458-30 30-30s30,13.458 30,30z"/>
    <path d="m130,220h60c2.508,0 4.85-1.253 6.24-3.34l20-30c2.298-3.446 1.366-8.103-2.08-10.4-3.445-2.299-8.103-1.366-10.4,2.08l-17.774,26.66h-51.973l-17.773-26.66c-2.297-3.446-6.954-4.378-10.4-2.08s-4.378,6.954-2.08,10.4l20,30c1.39,2.087 3.732,3.34 6.24,3.34z"/>
    <circle cx="140" cy="400" r="7.5"/>
    <circle cx="110" cy="370" r="7.5"/>
    <path d="m70,322.049v110.451c0,4.143 3.357,7.5 7.5,7.5h165c4.143,0 7.5-3.357 7.5-7.5v-110.451c0-4.143-3.357-7.5-7.5-7.5-22.348,0-34.128,5.712-44.522,10.751-9.81,4.757-19.075,9.249-37.978,9.249s-28.168-4.492-37.978-9.249c-10.395-5.039-22.175-10.751-44.522-10.751-4.143,0-7.5,3.357-7.5,7.5zm15,7.76c14.046,1.021 22.062,4.908 30.478,8.989 10.395,5.039 22.175,10.751 44.522,10.751s34.128-5.712 44.522-10.751c8.416-4.081 16.432-7.968 30.478-8.989v95.191h-150v-95.191z"/>
  </g>
</svg>
