<svg height="384pt" viewBox="-56 0 384 384" width="384pt" xmlns="http://www.w3.org/2000/svg"><path d="m256 192v176h-224v-192l48-48h128l48 48zm0 0" fill="#4dd0e1"/><path d="m32 192h224v176h-224zm0 0" fill="#ff7043"/><path d="m16 0c-8.832031 0-16 7.167969-16 16v24c0 22.054688 17.945312 40 40 40h16c10.671875 0 20.710938-4.167969 28.273438-11.726562 7.558593-7.5625 11.726562-17.601563 11.726562-28.273438 0-4.40625 3.59375-8 8-8h16c4.40625 0 8 3.59375 8 8v72h-48c-4.238281 0-8.3125 1.6875-11.3125 4.6875l-48 48c-3 3-4.6875 7.074219-4.6875 11.3125v192c0 8.832031 7.167969 16 16 16h224c8.832031 0 16-7.167969 16-16v-192c0-4.238281-1.6875-8.3125-4.6875-11.3125l-48-48c-3-3-7.074219-4.6875-11.3125-4.6875h-48v-72c0-22.054688-17.945312-40-40-40h-16c-22.054688 0-40 17.945312-40 40 0 2.863281-1.472656 4.769531-2.351562 5.648438-.878907.878906-2.785157 2.351562-5.648438 2.351562h-16c-4.40625 0-8-3.59375-8-8v-24c0-8.832031-7.167969-16-16-16zm217.367188 176h-89.367188c-8.832031 0-16 7.167969-16 16s7.167969 16 16 16h96v144h-192v-144h32c8.832031 0 16-7.167969 16-16s-7.167969-16-16-16h-25.367188l32-32h114.742188zm0 0" fill="#012e52"/></svg>